<?xml version="1.0" encoding="utf-8"?>
<!-- Generator: Adobe Illustrator 23.0.5, SVG Export Plug-In . SVG Version: 6.00 Build 0)  -->
<svg version="1.1" id="Calque_1" xmlns="http://www.w3.org/2000/svg" xmlns:xlink="http://www.w3.org/1999/xlink" x="0px" y="0px"
	 viewBox="0 0 200 118" style="enable-background:new 0 0 200 118;" xml:space="preserve">
<style type="text/css">
	.st0{fill:#FFFFFF;}
	.st1{fill:#106536;}
	.st2{fill:#F9FAF9;}
	.st3{fill:#F5F7F5;}
	.st4{fill:#FAFBFA;}
	.st5{fill:#F6F8F6;}
	.st6{fill:#FBFBFB;}
	.st7{fill:#18693C;}
	.st8{fill:#85BD29;}
	.st9{fill:#FBFCFB;}
	.st10{fill:#F7F9F7;}
	.st11{fill:#237041;}
	.st12{fill:#F5F8F6;}
	.st13{fill:#F0F4F1;}
	.st14{fill:#F2F5F2;}
	.st15{fill:#FAFAF9;}
	.st16{fill:#F8F9F8;}
	.st17{fill:#F8FAF8;}
	.st18{fill:#136638;}
	.st19{fill:#0F6536;}
	.st20{fill:#F6F8F7;}
	.st21{fill:#EAF0EC;}
	.st22{fill:#126638;}
	.st23{fill:#F7F8F7;}
	.st24{fill:#719D7E;}
	.st25{fill:#F3F6F4;}
	.st26{fill:#F0F3F0;}
	.st27{fill:#F4F7F4;}
	.st28{fill:#F9FAF8;}
	.st29{fill:#689878;}
	.st30{fill:#EEF2EF;}
	.st31{fill:#ECF1ED;}
	.st32{fill:#F1F4F1;}
	.st33{fill:#F3F6F3;}
	.st34{fill:#7EA286;}
	.st35{fill:#095E2E;}
	.st36{fill:#33734A;}
	.st37{fill:#095F2E;}
	.st38{fill:#116537;}
	.st39{fill:#709A7C;}
	.st40{fill:#EBF0EC;}
	.st41{fill:#DEE6DF;}
	.st42{fill:#97B39D;}
	.st43{fill:#AAC2AF;}
	.st44{fill:#568C69;}
	.st45{fill:#DCE5DD;}
	.st46{fill:#6B9A7D;}
	.st47{fill:#15673A;}
	.st48{fill:#096131;}
	.st49{fill:#9BC05B;}
	.st50{clip-path:url(#SVGID_2_);fill:#98BF53;}
	.st51{fill:#2B653F;}
	.st52{fill:#98BF53;}
	.st53{fill:#39703D;}
	.st54{fill:#9AC055;}
	.st55{fill:#417744;}
	.st56{fill:#477C44;}
	.st57{fill:#1F5C34;}
	.st58{fill:#BDD593;}
	.st59{fill:#1D5B32;}
	.st60{fill:#F8FAF5;}
	.st61{fill:#1A5930;}
	.st62{fill:#1E5B33;}
</style>
<path class="st0" d="M43.7,51.6c-0.1,0.1-0.2,0.1-0.2,0.2c0,0.2,0,0.4,0.1,0.6c0,0.1,0,0.3,0.1,0.4c0.1,0.5,0.2,1.1,0.3,1.6
	c0,0,0.1,0,0.1,0c0.1-0.1,0.2-0.3,0.3-0.4c0.1-0.2,0.1-0.3-0.1-0.5c0-0.3,0-0.5,0-0.8c0-0.1-0.1-0.2-0.1-0.3c0,0,0,0,0,0
	c0-0.1-0.1-0.3-0.1-0.4c0-0.1-0.1-0.3-0.1-0.4c0,0-0.1,0-0.1-0.1C43.8,51.5,43.7,51.6,43.7,51.6z"/>
<path class="st0" d="M22,54.3c-0.1,0.2-0.1,0.3-0.2,0.5c-0.1,0.2-0.2,0.3-0.2,0.5c0,0.1,0,0.1,0,0.2c0.2,0,0.4-0.1,0.6-0.1
	c0.2-0.3,0-0.6,0.1-0.9c0.1-0.3,0.1-0.6,0.2-0.9c0,0,0.1,0,0.1-0.1c0.1-0.5,0.1-1,0-1.5c0,0,0-0.1,0-0.1c0-0.1,0-0.2-0.1-0.3
	c-0.2,0.1-0.1,0.2-0.1,0.3c-0.1,0.4-0.1,0.8-0.2,1.2c0,0.2-0.1,0.4-0.1,0.6C22,53.9,22,54.1,22,54.3C22,54.3,22,54.3,22,54.3z"/>
<path class="st0" d="M20.8,43.8c0,0.1,0.1,0.3,0.1,0.4c0,0.2,0,0.3,0.1,0.3c0.2,0,0.2-0.2,0.2-0.3c0-0.1,0-0.1,0-0.2
	C21.1,43.8,21,43.8,20.8,43.8z"/>
<path class="st0" d="M23.8,35.5C23.8,35.5,23.8,35.5,23.8,35.5c-0.1-0.1-0.2-0.1-0.2,0c0,0,0,0.1,0,0.1
	C23.7,35.6,23.8,35.5,23.8,35.5z"/>
<path class="st1" d="M19.8,69.2c0,0-0.1,0.2-0.1,0.2c-0.1,0,0,0.1,0,0.2c0-0.4-0.4-1.1-0.6-1.5C19,66.5,19,64.7,18.9,63
	c0-0.2,0-0.3,0-0.5c0-0.2-0.1-0.3-0.3-0.4c-0.1,0-0.2-0.2-0.2-0.3c0-0.2-0.1-0.3-0.3-0.3c-0.1,0-0.2-0.1-0.3-0.2
	c-0.5-0.5-1-1.1-1.5-1.6c-0.1-0.1-0.1-0.3-0.2-0.4c-0.1-0.4-0.2-0.9-0.1-1.3c0-0.3,0-0.5-0.3-0.6c-0.1,0-0.2-0.2-0.3-0.3
	c-0.2-0.2-0.2-0.4-0.1-0.6c0.3-0.6,0.4-1.2,0.3-1.8c0-0.2,0-0.5,0-0.7c0-1-0.1-1.9-0.1-2.9c0-0.3-0.1-0.4-0.3-0.5
	c-1.8-1-3.5-2.1-5.3-3.2c-0.6-0.4-1.2-0.8-1.8-1.2C8,46,7.8,45.8,7.9,45.5c0-0.3,0-0.6,0-1c0-0.4,0-0.7,0.2-1
	c0.1-0.2,0.1-0.4,0.1-0.6c0-0.4,0-0.8,0-1.2c0-0.2,0.1-0.3,0.2-0.5c0.1-0.1,0.2-0.2,0.3-0.2c0.4-0.3,0.6-0.6,0.5-1.1
	c0-0.1,0.1-0.3,0.1-0.4c0-0.1,0.1-0.3,0.1-0.4c0-0.2,0-0.4,0.1-0.6c0.1-0.2,0.2-0.3,0.3-0.5c0.2,0,0.3,0,0.5-0.1c0-0.1,0-0.3,0-0.4
	c0-0.2,0-0.4,0.1-0.5c0.1-0.3,0.1-0.3,0.4-0.2c0.4,0.2,0.7,0.3,1.1,0.5c0.1,0.1,0.3,0.1,0.5,0.2c0.1-0.4,0.1-0.8-0.3-1.1
	c-0.1-0.1-0.2-0.3-0.2-0.4c0.1-0.2,0.3-0.3,0.5-0.3c0.1,0,0.3,0,0.5,0c0-0.5,0.2-0.9-0.1-1.3c0.6-0.1,1.2,0.1,1.8,0.1
	c0-0.2,0-0.4,0.1-0.6c0.3,0,0.6,0,0.9,0c-0.1-0.2-0.1-0.4-0.1-0.6c0-0.3,0-0.3,0.2-0.4C16,32.7,16,32.7,16,32
	c0.7-0.5,1.6-0.3,2.1,0.3c0.3,0.4,0.4,0.4,0.8,0.3c0.2-0.1,0.4-0.2,0.7-0.2c0.1,0,0.3-0.1,0.5-0.1c0.5,0,1-0.1,1.5-0.1
	c0.3,0,0.6,0,1,0c0.4,0,0.8,0,1.2,0.1c0.2,0,0.3-0.1,0.4-0.2c0.5-0.5,1.1-1.1,1.6-1.6c0.6-0.6,1.3-1.1,2-1.5c0.1,0,0.1-0.1,0.2-0.1
	c0-0.1,0-0.2-0.1-0.2c-0.1-0.3-0.1-0.4,0.2-0.6c0.1-0.1,0.3-0.3,0.3-0.4c0.1-0.3,0.2-0.5,0.4-0.8c0.2-0.4,0.3-0.8,0.2-1.3
	c0-0.2,0-0.3,0.2-0.4c0.2-0.1,0.4-0.2,0.6-0.3c0.1-0.1,0.2-0.2,0.3-0.3c0.1-0.2,0-0.3-0.1-0.4c-0.1,0-0.1-0.1-0.2-0.1
	c-0.3-0.2-0.5-0.4-0.6-0.8c-0.1-0.5-0.2-1-0.4-1.6c0-0.2,0-0.3,0.2-0.3c0.3-0.1,0.5-0.1,0.8-0.1c0.2-0.1,0.4-0.2,0.6-0.2
	c0.2,0,0.3-0.1,0.5-0.1c0.3,0,0.6,0.1,0.8-0.2c0.1-0.1,0.2,0,0.3,0c0.2,0,0.5,0,0.7,0c0,0,0.1-0.1,0.1-0.1c0.1-0.4,0.3-0.6,0.7-0.7
	c0.3-0.1,0.5-0.2,0.8-0.4c0.2-0.1,0.4-0.1,0.6,0c0.4,0.2,0.7,0.5,0.9,1c0.1,0.2,0.2,0.3,0.4,0.3c0.4,0,0.7,0.2,0.8,0.6
	c0.1,0.3,0.4,0.6,0.6,0.8c0.5,0.5,1.1,0.9,1.6,1.4c0.2,0.1,0.4,0.2,0.6,0.3c0.1,0.4,0.2,0.8,0.3,1.1c0,0,0,0.1,0.1,0.1
	c0.3,0.7,0.4,0.8,1.2,0.8c1.2,0.1,2.1,0.6,2.6,1.7c0.1,0.2,0.2,0.3,0.3,0.5c0.1,0.2,0.1,0.3,0.1,0.5c-0.1,0.2-0.2,0.5-0.3,0.7
	c-0.1,0.2-0.2,0.3-0.3,0.4c-0.2,0.2-0.3,0.3-0.3,0.6c-0.1,0.3-0.2,0.6-0.3,1c-0.1,0.3-0.1,0.7,0.1,1c0.8,1.1,1.6,2.1,2.5,3.2"/>
<path class="st1" d="M44.5,48.8c-0.1-0.5-0.3-1.1-0.4-1.6c-0.1-0.2-0.1-0.4-0.3-0.5c-0.2-0.1-0.5-0.1-0.7-0.2c0,0,0,0,0,0
	c-0.2-0.1-0.3-0.1-0.5-0.2c0,0,0,0,0,0c-0.2-0.1-0.4-0.2-0.7-0.1c-0.2,0.1-0.3,0.2-0.5,0.2c0,0,0,0-0.1,0.1
	c-0.2,0.1-0.3,0.3-0.5,0.4c0,0,0,0-0.1,0.1c-0.4,0.3-0.7,0.6-1.1,0.9c0,0,0,0,0,0c-0.2,0.1-0.3,0.3-0.5,0.4c0,0,0,0-0.1,0.1
	c-0.2,0.2-0.4,0.3-0.6,0.5c-0.1-0.1-0.2-0.3-0.2-0.4c-0.1-0.2-0.2-0.4-0.2-0.6c-0.1-0.1-0.1-0.2-0.2-0.4c-0.1-0.2-0.3-0.4-0.4-0.6
	c-0.1-0.2-0.3-0.4-0.5-0.5c-0.1-0.1-0.2-0.2-0.4-0.2c-0.6-0.2-1.2-0.4-1.8-0.7c-0.2-0.1-0.4-0.2-0.6-0.3c0,0,0,0,0,0
	c-0.1-0.1-0.3-0.2-0.4-0.3c-0.4-0.4-0.8-0.7-1.2-1.1c0,0,0,0,0,0c-0.2-0.2-0.3-0.4-0.5-0.6c-0.1-0.1-0.1-0.2-0.2-0.3l0,0
	c0,0,0,0,0,0c-0.1-0.1-0.2-0.3-0.2-0.4c0,0,0,0,0,0c-0.1-0.2-0.2-0.4-0.3-0.6c-0.1-0.3-0.2-0.5-0.3-0.8c-0.1-0.1-0.1-0.3-0.2-0.4
	c0,0,0,0,0,0c-0.1-0.1-0.1-0.3-0.2-0.4c0,0,0,0,0,0c-0.1-0.1-0.1-0.2-0.2-0.4c0-0.1-0.1-0.3-0.1-0.4c1.3-0.1,2.6-0.2,3.8,0
	c0.2,0.1,0.3,0.1,0.5,0.2c0.1,0,0.2,0.1,0.3,0.1c0.5,0.3,0.9,0.3,1.5,0.2c0.1-0.1,0.3-0.2,0.4-0.2c0.2-0.1,0.3-0.2,0.4-0.5
	c0,0,0-0.1,0-0.1c0,0,0.1-0.1,0.1-0.1c0.1-0.6,0.1-1.1-0.2-1.6c-0.2-0.2-0.3-0.4-0.5-0.6c-0.2-0.2-0.4-0.3-0.6-0.3
	c-0.3-0.2-0.7-0.3-1-0.5C35.2,36,35.1,36,35,36c-0.1,0-0.1-0.1-0.2-0.1c-0.2-0.1-0.5-0.3-0.7-0.4c-0.1-0.1-0.2-0.1-0.3-0.2
	c-0.2-0.1-0.5-0.2-0.7-0.4c-0.1-0.1-0.2-0.1-0.3-0.2c-0.2-0.1-0.3-0.2-0.5-0.3c-0.1-0.1-0.2-0.2-0.3-0.2c-0.1-0.1-0.2-0.1-0.2-0.2
	c0.1,0,0.1-0.1,0.2-0.1c0,0,0.1,0,0.2,0.1c0-0.1-0.1-0.2-0.1-0.3c0.4,0,0.8,0,1.2,0c0.2,0,0.3,0,0.5-0.2c-0.3,0-0.5,0-0.7,0
	c-0.3-0.1-0.6-0.1-0.9-0.2c0,0,0,0,0,0c0,0,0-0.1-0.1-0.1c0.4-0.1,0.7-0.1,1.1-0.2c0.8-0.2,1.5-0.7,1.9-1.4c0.2-0.1,0.2-0.3,0.2-0.6
	c-0.1,0.2-0.2,0.3-0.3,0.4c-0.1,0.1-0.2,0.1-0.3,0.2c-0.4,0.4-0.9,0.7-1.5,0.8c-0.6,0.1-1.2,0.1-1.8-0.1c-0.8-0.3-1.6-0.3-2.4,0.2
	c-0.1,0-0.1,0.1-0.1,0.1c-0.2-0.1-0.4-0.2-0.6-0.3c-0.1-0.1-0.3-0.2-0.4-0.3c-0.1-0.1-0.1-0.1-0.1,0c0,0.3,0,0.5,0,0.8
	c0,0.1,0,0.2-0.1,0.4c0,0,0-0.1-0.1-0.1c0.1-0.4,0-0.7,0-1.1c-0.1,0.3,0,0.7-0.2,1c-0.1-0.1-0.3-0.2-0.4-0.3
	c-0.1-0.1-0.2-0.1-0.3-0.2c-0.2-0.1-0.3-0.1-0.5-0.2c-0.2,0.1-0.1,0.4-0.1,0.6c0,0.3,0.1,0.7,0.1,1c-0.3,0.1-0.6,0.2-0.9,0.2
	c-0.4,0.1-0.8,0.2-1.2,0.5c-0.1,0.1-0.3,0.2-0.4,0.2c-0.1,0.1-0.1,0.1-0.2,0.2c-0.1,0.1-0.2,0.1-0.3,0.2c0,0,0,0,0,0
	c-0.1,0.1-0.2,0.2-0.3,0.2c0,0,0,0-0.1,0.1c-0.5,0.4-0.7,0.7-0.7,0.9c0.1-0.1,0.2-0.2,0.4-0.3c0.2-0.1,0.4-0.3,0.7-0.3
	c-0.2,0.2-0.3,0.4-0.5,0.6c-0.1,0.1-0.3,0.2-0.4,0.4c-0.1,0.1-0.2,0.2-0.2,0.3c-0.2,0.3-0.4,0.5-0.6,0.8c0,0,0,0-0.1,0.1
	c-0.1,0.1-0.1,0.2-0.2,0.2c0,0,0,0,0,0c-0.2,0.3-0.4,0.6-0.6,0.9c0,0,0,0,0,0c-0.1,0.2-0.2,0.4-0.3,0.5c-0.1,0.3-0.2,0.5-0.4,0.8
	c-0.1,0.2-0.2,0.4-0.2,0.6c0,0,0,0,0,0c-0.1,0.1-0.1,0.3-0.2,0.4c0,0.1,0,0.1-0.1,0.2c-0.1,0.3-0.2,0.5-0.3,0.8c0,0.1,0,0.2-0.1,0.3
	c0,0.1-0.1,0.2-0.1,0.3c0,0.1-0.1,0.3-0.1,0.4c-0.1,0.2-0.1,0.4,0,0.6c0-0.1,0-0.2,0.1-0.2c0-0.1,0.1-0.2,0.1-0.3
	c0-0.1,0.1-0.1,0.1-0.2c0.1-0.2,0.3-0.5,0.4-0.7c0,0,0,0,0,0c0.1-0.2,0.2-0.3,0.3-0.5c0,0,0,0,0,0c0.1-0.2,0.3-0.3,0.4-0.5
	c0,0,0,0,0.1-0.1c0.3-0.2,0.6-0.4,0.9-0.6l0,0c0,0,0,0,0,0c0.1,0,0.1-0.1,0.2-0.1c0,0,0,0,0,0c0.2-0.1,0.3-0.1,0.5-0.2
	c0.1,0.1,0.3-0.1,0.2,0.1c-0.1,0.1-0.2,0.3-0.4,0.4c-0.1,0.1-0.2,0.3-0.3,0.4c0,0,0,0,0,0c-0.1,0.1-0.2,0.2-0.2,0.3
	c-0.1,0.2-0.2,0.3-0.3,0.5c-0.2,0.4-0.4,0.7-0.6,1.1c0,0,0,0.1,0,0.1c-0.1,0.1-0.1,0.3-0.2,0.4c-0.1,0.3-0.1,0.5-0.2,0.8
	c0,0.1-0.1,0.1-0.1,0.2c-0.1,0.4-0.1,0.7-0.2,1.1c-0.1,0.1-0.1,0.2,0,0.4c0-0.2,0.1-0.3,0.1-0.4c0-0.1,0-0.2,0.1-0.3
	c0.1-0.2,0.2-0.5,0.3-0.7c0.1-0.1,0.2-0.2,0.2-0.3c0.2,0,0.1,0.2,0.1,0.3c-0.2,0.5-0.2,1-0.2,1.5c-0.1,0.5-0.2,0.9-0.2,1.4
	c-0.2,0.8-0.3,1.7-0.5,2.5c0,0,0,0,0,0c0,0.1,0,0.2-0.1,0.3c0,0.1-0.1,0.2-0.1,0.3c-0.1,0.2-0.1,0.3,0,0.5c0.1-0.1,0.1-0.2,0.1-0.3
	c0-0.1,0.1-0.2,0.1-0.2c0-0.1,0-0.2,0.1-0.2c0-0.1,0.1-0.2,0.1-0.2c0.1-0.3,0.2-0.5,0.3-0.8c0,0,0,0,0,0c0.1-0.2,0.1-0.3,0.2-0.5
	c0,0,0.1,0,0.1,0.1c0,0.5,0,1,0,1.5c-0.2,0.3-0.3,0.6-0.5,0.8c0,0.1-0.1,0.1-0.2,0.2c0.1,0.1,0.2,0.1,0.3,0.1c0,0.3-0.1,0.5-0.1,0.8
	c0.2-0.2,0.3-0.4,0.3-0.7c0-0.1,0-0.1,0.1-0.2c0,0,0.1,0,0.1-0.1c0,0.3,0.1,0.5,0.1,0.7c0,0.2,0,0.5,0.1,0.7
	c0.1,0.5,0.1,1.1-0.1,1.6c0,0.1-0.1,0.3-0.1,0.4c0,0,0,0,0,0c-0.1,0.1-0.1,0.3-0.2,0.4c-0.1,0.2-0.2,0.4-0.3,0.6
	c-0.2,0.3-0.4,0.5-0.6,0.8c-0.2,0.2-0.4,0.5-0.6,0.7c-0.2,0.2-0.4,0.5-0.6,0.7c0.5,0,0.9-0.3,1.2-0.6c0.4-0.3,0.8-0.8,1.2-1.1
	c0.1-0.1,0.2-0.1,0.2-0.1c0,0,0.1,0,0.1,0c-0.1,0.1-0.1,0.2-0.2,0.4c-0.1,0.2-0.3,0.5-0.4,0.7C20.1,58,20,58.1,20,58.3
	c-0.1,0.3-0.2,0.5-0.4,0.8c-0.1,0.1-0.1,0.3-0.2,0.4c0,0,0,0,0,0c-0.4,0.7-0.4,1.4-0.1,2.1c0.1,0.2,0.2,0.4,0.5,0.4
	c-0.2-0.4-0.2-0.8-0.1-1.2c0-0.1,0-0.1,0.1-0.2c0.1-0.1,0.3-0.3,0.4-0.4c0,0,0,0,0,0c0.2-0.1,0.3-0.2,0.5-0.2c0,0,0.1,0,0.1-0.1
	c0.5-0.2,0.9-0.5,1.4-0.7c0,0,0.1-0.1,0.1-0.1c0.2-0.1,0.4-0.2,0.6-0.3c0.1-0.1,0.1-0.1,0.2-0.2c0.2-0.2,0.5-0.3,0.7-0.5
	c0,0,0,0,0,0c0.1-0.1,0.3-0.2,0.5-0.3c-0.1,0.3-0.1,0.5-0.2,0.7c-0.1,0.2-0.2,0.3-0.2,0.5c-0.1,0.1-0.1,0.2-0.2,0.4
	c-0.1,0.1-0.2,0.2-0.3,0.3c-0.2,0.2-0.4,0.4-0.6,0.6c-0.3,0.2-0.6,0.5-0.9,0.7c-0.2,0-0.3,0.1-0.4,0.3c0.3-0.1,0.6-0.1,0.9-0.2
	c0.1,0,0.2-0.1,0.3-0.1c0.2-0.1,0.3-0.1,0.5-0.2c0.3-0.2,0.6-0.3,0.8-0.5c0.1-0.1,0.3-0.2,0.4-0.2c0.2-0.1,0.3-0.2,0.4-0.4
	c0.2-0.3,0.4-0.6,0.6-0.8c0-0.1,0-0.1,0.1-0.2c0.1-0.1,0.2-0.2,0.2-0.3l0,0c0.1-0.2,0.2-0.4,0.2-0.5c0.1-0.2,0.1-0.3,0.2-0.5
	c0-0.2,0.1-0.4,0.1-0.6c0-0.1,0.1-0.3,0.1-0.4c0.2-0.1,0.1-0.3,0.1-0.5c0-0.1,0-0.2,0-0.4c0.1,0,0.1-0.1,0.2-0.1c0,0,0,0,0,0
	c0,0.4,0,0.9,0,1.3c0,0.1,0,0.1,0,0.2c-0.1,0.2-0.1,0.5-0.2,0.7c0,0.1,0,0.1,0,0.2c-0.2,0-0.2,0.2-0.2,0.3c-0.2,0.4-0.4,0.8-0.6,1.2
	c-0.1,0.1-0.2,0.3-0.2,0.4c-0.1,0.2-0.2,0.4-0.3,0.5c0,0,0,0.1-0.1,0.1c-0.3,0.4-0.5,0.8-0.8,1.2l0,0c0,0,0,0,0,0
	c-0.1,0.1-0.2,0.2-0.2,0.3c0,0.1-0.1,0.1-0.1,0.2c-0.2,0.2-0.3,0.4-0.5,0.6c0,0,0,0,0,0c-0.2,0.2-0.4,0.5-0.5,0.7c0,0,0,0,0,0
	c-0.5,0.6-1,1.2-1.4,1.8c-0.2,0.4-0.4,0.8-0.6,1.1c0,0,0,0,0,0c-0.1,0.3-0.2,0.6-0.3,0.9c0,0.1-0.1,0.3-0.1,0.4
	c0,0.2-0.1,0.5-0.1,0.7c-0.1,0.1,0.2,0.3,0.1,0.4c-0.1,0.1-0.5,0-0.6,0.1"/>
<path class="st1" d="M32.1,70.6c-0.1-0.2-0.2-0.4-0.3-0.6c0-0.1,0-0.1,0-0.2c-0.2-0.6-0.3-1.1,0-1.7c0,0,0,0,0,0
	c0.3-0.4,0.7-0.8,1-1.3c0,0,0,0,0,0c0.1-0.1,0.2-0.2,0.2-0.3c0,0,0,0,0,0c0.3-0.4,0.6-0.8,0.9-1.1c0,0.3,0,0.6,0,0.9
	c0,0.5,0,1,0,1.4c0,0.8,0.1,1.7,0.1,2.5c0,0.2-0.1,0.5-0.2,0.7c-0.1,0.2-0.1,0.5-0.2,0.7c0,0.1-0.1,0.3-0.1,0.4
	c-0.2,0.3-0.2,0.7,0,1c0.1,0.3,0.2,0.5,0.3,0.7c0.1,0.2,0.1,0.4,0.1,0.7c-0.2,1-0.3,2.1-0.5,3.1c0,0.2-0.1,0.5-0.2,0.7
	c-0.1,0.3,0,0.5,0.2,0.7c0.6,0.6,0.6,0.6,0.6,1.4c0,0.7,0,1.5,0,2.2c0,0.2,0,0.4,0.2,0.5c0,0,0,0,0,0c0.5,0.3,0.5,0.8,0.4,1.3
	c-0.1,0-0.2,0.1-0.4,0.1c0,0.3,0,0.5,0,0.8c0,0.7,0,1.4,0.1,2.1c0,0.2,0,0.3,0.1,0.5c0.1,0.3,0,0.5-0.1,0.7c0,0.1-0.1,0.1-0.1,0.2
	c-0.1,0.2-0.1,0.4,0.1,0.5c0.1,0.1,0.2,0.2,0.4,0.3C34.4,90,34.4,90,34.3,90c-0.4,0.2-0.5,0.6-0.6,1c0,0.1,0,0.3,0.1,0.4
	c0.2,0.2,0.2,0.4,0.2,0.6c0,0.3,0,0.6-0.1,0.8c-0.1,0.3,0,0.7,0.3,0.8c0.3,0.2,0.4,0.5,0.2,0.7c-0.2,0.3-0.4,0.5-0.5,0.8
	c-0.3-0.5-0.7-0.9-1-1.4c-0.2-0.2-0.3-0.5-0.5-0.7c0,0,0,0,0,0c-0.1-0.1-0.2-0.2-0.2-0.3c0,0,0,0,0,0c-0.2-0.3-0.4-0.5-0.6-0.8
	c-0.1-0.2-0.2-0.3-0.3-0.5c-0.2-0.2-0.3-0.5-0.5-0.7c-0.1-0.2-0.2-0.3-0.3-0.5c-0.2-0.2-0.3-0.5-0.5-0.7c-0.1-0.1-0.2-0.3-0.2-0.4
	c0,0,0,0,0,0c-0.1-0.1-0.2-0.3-0.2-0.4c-0.2-0.3-0.3-0.6-0.5-0.9c-0.1-0.2-0.1-0.3-0.2-0.5c-0.1-0.3-0.1-0.6-0.2-1
	c0-0.1,0-0.2,0-0.3c-0.1-0.8-0.1-1.6-0.1-2.5c0-0.3,0-0.6,0.2-0.9c0.1-0.1,0.1-0.2,0.2-0.2c0.1-0.1,0.1-0.2,0.2-0.2
	c0.1-0.1,0.1-0.2,0.2-0.2c0.1-0.1,0.2-0.3,0.2-0.4c0.2-0.4,0.4-0.8,0.6-1.2l0,0c0.1-0.1,0.1-0.2,0.2-0.3c0.1-0.1,0.1-0.2,0.2-0.3
	c0.2-0.3,0.3-0.7,0.5-1c0.1-0.1,0.1-0.3,0.1-0.4c0.1-0.1,0.1-0.3,0.2-0.4c0,0,0,0,0,0c0.2-0.5,0.3-0.9,0.5-1.4
	c0.2-0.8,0.4-1.6,0.6-2.4c0.3-1.1,0.3-2.2-0.1-3.3C32.2,70.9,32.1,70.8,32.1,70.6z"/>
<path class="st1" d="M38.5,54.9c0-0.2,0.1-0.3,0.1-0.5c0.2-0.3,0.3-0.6,0.6-0.8c0,0,0.1-0.1,0.1-0.1c0,0,0.1-0.1,0.1-0.1
	c0.2-0.2,0.5-0.4,0.7-0.6c0.2-0.2,0.4-0.4,0.6-0.5c0.2-0.2,0.4-0.2,0.6-0.1c0.3,0.1,0.6,0.3,0.6,0.6c-0.6,0.3-0.8,0.8-0.6,1.4
	c0.1,0.2,0.1,0.3,0.2,0.5c0.1,0.2,0,0.3-0.2,0.4c-0.1,0-0.2,0.1-0.4,0.1c-0.3,0.1-0.6,0.3-0.6,0.6c0,0.3-0.2,0.7-0.4,0.9
	c-0.1,0.1-0.3,0.3-0.5,0.3c-0.5,0.3-0.6,0.7-0.7,1.2c0,0.1,0.1,0.2,0.1,0.4c0.3,0.6,0.3,1.1,0.2,1.7c-0.2,0.6-0.4,1.2-0.6,1.8
	c0,0.1-0.1,0.2-0.2,0.3c-0.3,0.2-0.7,0.3-1,0.5c-0.2,0.1-0.3,0.1-0.4-0.1c-0.2-0.2-0.4-0.2-0.6-0.1c-0.1,0.1-0.3,0.1-0.4,0.2
	c-0.2,0.1-0.3,0.1-0.5,0c0-0.1,0-0.2,0.1-0.2c0.1-0.2,0.2-0.4,0.3-0.6c0.1-0.2,0.3-0.5,0.4-0.7c0.1-0.3,0.3-0.6,0.4-0.9
	c0-0.1,0.1-0.2,0.1-0.3c0.1-0.2,0.2-0.4,0.3-0.5c0,0,0,0,0,0c0.1-0.1,0.1-0.3,0.2-0.4c0-0.1,0-0.1,0.1-0.2c0.1-0.1,0.1-0.3,0.2-0.4
	c0-0.1,0.1-0.2,0.1-0.2c0.1-0.1,0.1-0.3,0.2-0.4c0.1-0.4,0.3-0.8,0.4-1.2c0.1-0.3,0.2-0.5,0.3-0.8c0,0,0,0,0,0
	C38.3,55.8,38.4,55.3,38.5,54.9z"/>
<path class="st2" d="M33.8,65.5c-0.3,0.4-0.6,0.8-0.9,1.1c0-0.1,0.2-0.3,0-0.4c0,0,0-0.1,0-0.1c0.1-0.1,0.8-0.8,0.9-0.9
	C33.9,65.3,33.8,65.4,33.8,65.5z"/>
<path class="st3" d="M33.7,95.8c-0.7,0.1-1.4,0.1-2,0.2c-0.2,0-0.3,0-0.5,0c0.6-0.1,1.2-0.1,1.8-0.2C33.2,95.8,33.5,95.8,33.7,95.8
	C33.7,95.8,33.7,95.8,33.7,95.8z"/>
<path class="st4" d="M19.1,91.1c-0.2,0.2-0.4,0.4-0.6,0.5c-0.2,0.1-0.4,0.2-0.6,0.3c0.1-0.1,0.2-0.2,0.3-0.3
	c0.2-0.1,0.3-0.4,0.5-0.4c0,0,0.1-0.2,0.1-0.2C19,90.9,19.1,91,19.1,91.1z"/>
<path class="st5" d="M35.5,62.7c0,0.1,0,0.2-0.1,0.2c0,0-0.1,0-0.1,0c0,0-0.1-0.1-0.1-0.1C35.3,62.8,35.4,62.7,35.5,62.7z"/>
<path class="st6" d="M35.1,31.7c-0.4,0.7-1.1,1.2-1.9,1.4c-0.4,0.1-0.7,0.1-1.1,0.2c0,0,0,0.1,0.1,0.1c-0.1,0-0.2,0-0.4,0
	c0-0.2,0.2-0.2,0.3-0.2c0.2,0,0.3-0.1,0.4-0.2c0.1,0.1,0.2,0.1,0.3,0.1c0,0,0.1-0.1,0.1-0.1c0,0-0.1-0.1-0.1-0.1c-0.1,0-0.3,0-0.4,0
	c-0.4,0-0.7,0-1.1-0.2c-0.4-0.2-0.8-0.2-1.3-0.2c-0.2,0-0.3,0.1-0.5,0.1c-0.2,0-0.2,0.1-0.2,0.3c-0.3,0.3-0.7-0.1-1.1,0.1
	c0-0.1,0-0.3-0.1-0.4c0.2,0.1,0.4,0.2,0.6,0.3c0,0,0.1,0,0.1-0.1c0.8-0.5,1.6-0.4,2.4-0.2c0.6,0.2,1.2,0.2,1.8,0.1
	c0.6-0.1,1.1-0.4,1.5-0.8c0.1-0.1,0.2-0.2,0.3-0.2C35,31.6,35.1,31.7,35.1,31.7z"/>
<path class="st2" d="M20.8,56.8c-0.1,0-0.2,0.1-0.2,0.1c-0.4,0.4-0.8,0.8-1.2,1.1c-0.3,0.3-0.7,0.5-1.2,0.6c0.2-0.2,0.4-0.4,0.6-0.7
	c0.2-0.2,0.4-0.5,0.6-0.7c0.2-0.3,0.4-0.5,0.6-0.8c-0.1,0.4,0.3,0.4,0.5,0.5c0.1-0.2,0.1-0.6,0.5-0.5c0-0.1,0-0.2,0-0.3
	c0.1,0,0.2,0,0.4,0c0,0.1,0,0.2-0.1,0.2c-0.1,0.1-0.2,0.2-0.2,0.2C20.8,56.7,20.8,56.7,20.8,56.8z"/>
<path class="st6" d="M21.7,82.8c-0.1-0.2-0.1-0.4-0.2-0.6c0-0.1,0-0.1,0-0.2c0.1,0.1,0.2,0.1,0.3,0.1c0,0.1,0,0.2,0,0.3
	c0.2,0.8,0.3,1.6,0.2,2.3c0,0,0,0.1,0,0.2c0.2-0.3,0.3-0.6,0.3-0.8c0.2-1.1,0.2-2.1,0.1-3.2c-0.1-0.7-0.2-1.4-0.3-2
	c-0.1-0.4-0.2-0.8-0.3-1.2c0,0.1,0.1,0.1,0.1,0.2c0.4,1.5,0.7,3.1,0.7,4.7c0,1-0.2,2-0.7,2.9c-0.2-0.1-0.1-0.2-0.1-0.3
	c0-0.6,0-1.2-0.1-1.8c0,0,0,0,0,0C21.8,83.1,21.7,82.9,21.7,82.8z"/>
<path class="st7" d="M22.5,53.6c-0.1,0.3-0.1,0.6-0.2,0.9c-0.1,0.3-0.3,0.5-0.4,0.8c-0.1-0.1-0.2-0.1-0.3-0.1
	c0.1-0.2,0.2-0.3,0.2-0.5c0.1-0.2,0.1-0.3,0.2-0.5c0,0,0,0,0,0c0.1-0.4,0.2-0.8,0.2-1.2c0-0.3,0.1-0.6,0.1-0.9c0.1,0,0.1,0,0.2,0
	c0,0-0.1,0.1,0,0.1C22.6,52.7,22.5,53.2,22.5,53.6z"/>
<path class="st8" d="M44.2,53.5c0.2,0.1,0.1,0.3,0.1,0.5c-0.1,0.1-0.2,0.3-0.3,0.4c0,0-0.1,0-0.1,0c-0.1-0.5-0.2-1.1-0.3-1.6
	c0-0.1,0-0.3-0.1-0.4c0-0.1,0-0.1,0-0.2c0.1,0.2,0.1,0.2,0.4,0.1c0,0,0,0,0,0c0,0.3,0,0.6,0.1,0.9C44.1,53.3,44.2,53.4,44.2,53.5z"
	/>
<path class="st6" d="M20.7,66.6c0.2-0.4,0.4-0.8,0.6-1.1c0.4-0.6,0.9-1.2,1.4-1.8c0,0.2,0,0.3-0.1,0.5c0,0.2-0.2,0.3-0.4,0.2
	c0,0.1,0.1,0.2,0.1,0.3c0,0,0,0,0,0.1c-0.1,0-0.2,0-0.4,0c0,0.1,0,0.2,0,0.3c-0.2,0.1-0.3,0.2-0.5,0.4c0,0.1,0.1,0.1,0.1,0.2
	C21.2,66,21,66.3,20.7,66.6z"/>
<path class="st4" d="M25,60.5c0.1-0.2,0.2-0.4,0.3-0.5c0.1-0.1,0.2-0.3,0.2-0.4c0.2-0.4,0.4-0.8,0.6-1.2c0,0,0,0.1,0.1,0.1
	c0,0.2-0.1,0.4,0,0.7c0.1,0.3-0.2,0.2-0.4,0.2c0,0.2,0,0.4,0,0.7c-0.1,0-0.2,0-0.4,0.1C25.3,60.4,25.2,60.5,25,60.5z"/>
<path class="st9" d="M26.5,57.2c0-0.1,0-0.1,0-0.2c0.1-0.4,0.1-0.9,0-1.3c0,0,0,0,0,0c0-0.1,0-0.2-0.1-0.3c0,0-0.1,0-0.1,0
	c0,0.1,0,0.2,0,0.3c0,0.1,0,0.2,0,0.4c0,0,0,0-0.1,0c0,0-0.1,0-0.1,0c0-0.3,0.1-0.6,0.1-0.9c0,0-0.1,0-0.1-0.1
	c-0.1-0.2,0.1-0.1,0.2-0.2c0.1,0.1,0.2,0.3,0.3,0.4c0,0.5-0.1,1-0.1,1.5c0.1,0,0.1,0,0.2,0c0,0.1,0,0.2,0,0.3
	C26.7,57.2,26.6,57.2,26.5,57.2z"/>
<path class="st2" d="M32.7,43.8c0.4,0.4,0.8,0.7,1.2,1.1c0.1,0.1,0.3,0.2,0.4,0.3c-0.1,0-0.3,0.1-0.3,0c-0.1-0.1-0.1-0.1-0.2,0
	c0,0,0,0,0,0c0-0.2-0.4-0.2-0.4-0.4c0-0.1-0.1-0.2-0.2-0.2c-0.2-0.1-0.2-0.1-0.3-0.4c-0.1,0-0.2-0.1-0.4-0.1
	C32.6,43.9,32.7,43.9,32.7,43.8z"/>
<path class="st2" d="M25.3,59c-0.2,0.3-0.4,0.6-0.6,0.8c-0.1,0.1-0.3,0.3-0.4,0.4c-0.1,0.1-0.3,0.2-0.4,0.2c0,0-0.1-0.1-0.1-0.1
	c0.1-0.2,0.4-0.2,0.4-0.5c0,0,0.1-0.1,0.2-0.1c0.1,0,0.2,0,0.3-0.1c-0.1-0.1-0.1-0.2-0.2-0.3c0.2,0,0.4-0.1,0.4-0.4
	C25.1,59.1,25.2,59.1,25.3,59z"/>
<path class="st4" d="M32.1,70.6c0.1,0.2,0.2,0.3,0.2,0.5c0.4,1.1,0.4,2.2,0.1,3.3c0-0.1,0-0.2-0.1-0.2c0-0.1-0.1-0.1-0.2-0.1
	c0,0,0-0.1,0-0.1c0.1,0,0.1,0,0.2,0c0.1,0,0.1-0.1,0.1-0.2c0.1-0.6,0.1-1.2,0-1.8c0,0,0-0.1,0-0.1c-0.3-0.1-0.2-0.3-0.2-0.6
	C32.3,71.1,32.1,70.9,32.1,70.6z"/>
<path class="st6" d="M32.2,33.4c0.3,0.1,0.6,0.1,0.9,0.2c0.1,0.1,0.1,0.1,0.2,0.2c-0.4,0-0.8,0-1.2,0c0,0.1,0.1,0.2,0.1,0.3
	C32.1,34,32,34,32,34c-0.1-0.1-0.2-0.1-0.3-0.2c-0.1,0-0.1-0.1-0.2-0.1c0.1,0,0.3,0,0.4-0.1C32,33.6,32.1,33.5,32.2,33.4z"/>
<path class="st4" d="M38.4,48.5c0.1,0.1,0.1,0.2,0.2,0.4c0.2-0.2,0.4-0.3,0.6-0.5c0,0.1,0,0.2,0.1,0.3c-0.3,0.2-0.5,0.6-0.9,0.4
	C38.2,49,38.3,48.7,38.4,48.5z"/>
<path class="st2" d="M21.5,37.9c0.2-0.3,0.4-0.5,0.6-0.8c0.1-0.1,0.2-0.2,0.2-0.3c0.1-0.1,0.3-0.2,0.4-0.4c0,0,0,0,0.1,0.1
	c-0.1,0.1-0.2,0.2-0.2,0.4c0,0,0,0.1,0,0.1c-0.1,0.1-0.3,0.2-0.4,0.3c-0.1,0.2-0.1,0.2-0.3,0.3c-0.1,0.1-0.1,0.3-0.2,0.5
	C21.6,38,21.6,38,21.5,37.9z"/>
<path class="st2" d="M19.7,60.7c-0.1,0.4-0.1,0.8,0.1,1.2c-0.3,0-0.4-0.2-0.5-0.4c-0.3-0.7-0.3-1.4,0.1-2.1
	c-0.1,0.3-0.1,0.5-0.2,0.8c-0.1,0.4,0,0.8,0.2,1.2C19.5,61.2,19.4,60.9,19.7,60.7z"/>
<path class="st10" d="M28.8,82.9c-0.2,0.3-0.2,0.6-0.2,0.9c0,0.8,0,1.6,0.1,2.5c0,0.1,0,0.2,0,0.3c-0.1-0.2-0.1-0.4-0.2-0.6
	c-0.1-0.8-0.2-1.6,0-2.4c0-0.2,0-0.4,0-0.6C28.6,83,28.7,83,28.8,82.9z"/>
<path class="st4" d="M21.1,56.5c0-0.1,0-0.2,0.1-0.2c0-0.1,0-0.3,0-0.4c0.2,0,0.3-0.1,0.4-0.1c0.1,0.1,0.1,0.2,0,0.4
	C21.5,56.2,21.5,56.6,21.1,56.5z"/>
<path class="st10" d="M27.8,93.1c-0.2-0.2-0.1-0.4,0-0.7c0.1-0.8,0.1-1.6-0.1-2.4c0-0.1-0.1-0.2-0.1-0.3c0.1,0.1,0.1,0.1,0.1,0.2
	c0.2,0.6,0.2,1.2,0.2,1.8C27.8,92.2,27.8,92.6,27.8,93.1z"/>
<path class="st6" d="M21.4,81.8c0-0.1-0.1-0.2-0.1-0.3c0,0-0.1,0-0.2-0.1c-0.1,0-0.2-0.1-0.3-0.1c0-0.1,0.1-0.2,0.1-0.3
	c0.2,0,0.3,0.1,0.4,0.1c0,0.1,0,0.1,0,0.2c0.1,0,0.2,0.1,0.2,0.1C21.5,81.6,21.5,81.7,21.4,81.8C21.4,81.8,21.4,81.8,21.4,81.8z"/>
<path class="st2" d="M25.2,82.3c0.1-0.4,0.2-0.9,0.3-1.3c0.1-0.6,0.2-1.2,0-1.8c0.2,0.2,0.2,0.4,0.2,0.6c0,0.9-0.2,1.8-0.5,2.7
	C25.2,82.3,25.2,82.3,25.2,82.3z"/>
<path class="st4" d="M20.5,89.4c-0.2,0.5-0.5,1-0.9,1.3c0-0.4,0.4-0.7,0.5-1.1C20.1,89.5,20.3,89.5,20.5,89.4z"/>
<path class="st5" d="M23.2,35.9c-0.3,0-0.4,0.2-0.7,0.3c-0.1,0.1-0.2,0.2-0.4,0.3c0-0.2,0.2-0.5,0.7-0.9c0.1,0.1,0.3,0.1,0.4,0.2
	C23.2,35.8,23.2,35.9,23.2,35.9L23.2,35.9z"/>
<path class="st4" d="M24.1,61.8c0.3-0.4,0.5-0.8,0.8-1.2c0.1,0.2,0.1,0.4-0.1,0.5c-0.2,0.1-0.3,0.2-0.3,0.4c0,0.1-0.1,0.2-0.1,0.4
	C24.3,61.9,24.2,61.8,24.1,61.8z"/>
<path class="st4" d="M39.8,48c0.4-0.3,0.7-0.6,1.1-0.9c0,0.1-0.1,0.2-0.1,0.4c-0.4,0.1-0.5,0.5-0.8,0.7C39.9,48.1,39.8,48,39.8,48z"
	/>
<path class="st6" d="M20.3,55.4c0-0.1,0.1-0.3,0.1-0.4c0.1-0.5,0.2-1,0.1-1.6c0-0.2-0.1-0.5-0.1-0.7c0-0.1,0-0.1,0-0.2
	c0.1,0.5,0.1,1,0.2,1.5c0,0.1,0,0.2,0,0.2c0,0.2,0.2,0.3-0.1,0.5c-0.1,0.1-0.1,0.3-0.1,0.5C20.4,55.3,20.3,55.4,20.3,55.4z"/>
<path class="st2" d="M32.7,66.9c-0.3,0.4-0.7,0.8-1,1.3c0-0.3,0.2-0.5,0.4-0.7c0.2-0.1,0.2-0.3,0.1-0.4C32.4,67,32.5,67,32.7,66.9z"
	/>
<path class="st2" d="M44.5,48.8c-0.1-0.3-0.2-0.6-0.3-1C44,47.5,44,47.3,43.9,47c-0.1,0-0.2,0-0.3,0.1c0-0.1,0.1-0.2,0.1-0.3
	c0,0,0.1,0,0.1,0c0.2,0.1,0.3,0.3,0.3,0.5C44.2,47.7,44.3,48.2,44.5,48.8"/>
<path class="st2" d="M23.7,76.3c-0.3-0.3-0.5-0.7-0.8-1c0.1,0,0.3,0.1,0.4,0.1c0,0.1,0.1,0.2,0.1,0.4c0.1,0,0.1,0,0.2-0.1
	C23.7,75.9,23.7,76.1,23.7,76.3z"/>
<path class="st2" d="M39.4,53.4c0,0-0.1,0.1-0.1,0.1c-0.3,0.2-0.4,0.5-0.6,0.8c0-0.1,0-0.3,0-0.4c0.2-0.2,0.1-0.5,0.4-0.7
	C39.2,53.3,39.3,53.4,39.4,53.4z"/>
<path class="st11" d="M44.1,52.4c-0.3,0.1-0.3,0.1-0.4-0.1c0-0.1,0-0.3,0-0.4c0-0.1,0.1-0.1,0.1-0.1c0.1,0.1,0.2,0.2,0.2,0.2
	C44,52.1,44,52.2,44.1,52.4z"/>
<path class="st12" d="M25.4,34.2c0.3-0.1,0.6-0.2,0.9-0.2c0-0.3-0.1-0.6-0.1-1c0-0.2-0.1-0.4,0.1-0.6c-0.1,0.4,0,0.8,0,1.1
	c0,0.1,0,0.2,0,0.3c0,0.1-0.1,0.2-0.2,0.3C25.9,34.2,25.6,34.2,25.4,34.2z"/>
<path class="st2" d="M20.5,71.9c0,0.7,0,1.4,0.2,2.1c-0.1,0-0.1,0.1-0.1,0.1c0,0-0.1-0.1-0.1-0.1c0.1-0.3,0-0.7-0.1-1
	c0-0.4-0.1-0.8,0-1.2C20.5,71.8,20.5,71.9,20.5,71.9z"/>
<path class="st2" d="M24.1,58.6c0.1-0.2,0.1-0.4,0.2-0.7c-0.2,0.1-0.3,0.2-0.5,0.3c0-0.1,0-0.1-0.1-0.2c0.3-0.1,0.5-0.2,0.8-0.3
	c-0.1,0.4-0.3,0.7-0.4,1.1C24.1,58.7,24.1,58.7,24.1,58.6z"/>
<path class="st6" d="M20.8,43.8c0.2-0.1,0.3,0,0.4,0.2c0,0,0,0.1,0,0.2c0,0.1,0,0.3-0.2,0.3c-0.2,0-0.2-0.2-0.1-0.3
	C20.9,44.1,20.8,44,20.8,43.8z"/>
<path class="st5" d="M19.6,50.5c0.2-0.8,0.3-1.7,0.5-2.5c0,0,0,0.1,0,0.1C20,48.8,19.8,49.6,19.6,50.5
	C19.7,50.4,19.6,50.4,19.6,50.5z"/>
<path class="st4" d="M21.6,55.2c0.1,0,0.2,0.1,0.3,0.1c0.1-0.3,0.3-0.6,0.4-0.8c-0.1,0.3,0.1,0.6-0.1,0.9c-0.2,0-0.4,0-0.6,0.1
	C21.6,55.3,21.6,55.3,21.6,55.2z"/>
<path class="st2" d="M31.7,68.2c-0.2,0.6-0.2,1.1,0,1.7c0,0.1,0,0.1,0,0.2c-0.3-0.4-0.3-0.9-0.3-1.3c0-0.1,0-0.2,0-0.3
	C31.4,68.2,31.5,68.1,31.7,68.2z"/>
<path class="st13" d="M20.2,45.1c-0.1,0.2-0.2,0.5-0.3,0.7c0,0.1,0,0.2-0.1,0.3c0,0-0.1,0-0.1,0c0.1-0.4,0.1-0.8,0.2-1.1
	c0-0.1,0-0.1,0.1-0.2c0,0.2,0,0.4,0,0.6C20,45.3,20.1,45.2,20.2,45.1z"/>
<path class="st2" d="M32.2,43.2c0.2,0.2,0.3,0.4,0.5,0.6c-0.2,0-0.3,0-0.5-0.1C32.2,43.5,32.2,43.3,32.2,43.2
	C32.2,43.2,32.2,43.2,32.2,43.2z"/>
<path class="st14" d="M20.1,52.3c0,0.3-0.1,0.5-0.3,0.7c0-0.2,0.1-0.5,0.1-0.8c-0.1,0-0.2-0.1-0.3-0.1c0.1-0.1,0.1-0.1,0.2-0.2
	C19.9,52,20,52.1,20.1,52.3z"/>
<path class="st2" d="M40.1,52.7c-0.2,0.2-0.5,0.4-0.7,0.6c0-0.3,0.1-0.4,0.3-0.5C39.9,52.8,40,52.6,40.1,52.7z"/>
<path class="st14" d="M20.3,51c0-0.5,0-1,0-1.5c0-0.1,0-0.1,0-0.2c0-0.1-0.1-0.1-0.2,0c0-0.1,0-0.2,0.1-0.3c0.1,0.1,0.1,0.2,0.1,0.2
	c0,0.6,0,1.1,0,1.7C20.4,50.9,20.3,50.9,20.3,51z"/>
<path class="st5" d="M37.4,37.4c0.3,0.5,0.3,1.1,0.2,1.6c0,0-0.1,0.1-0.1,0.1c0.1-0.5,0.1-0.9,0-1.4C37.4,37.6,37.4,37.5,37.4,37.4z
	"/>
<path class="st15" d="M22.3,52.2c0,0.3-0.1,0.6-0.1,0.9c0,0-0.1,0-0.1,0c0.1-0.4,0.1-0.8,0.2-1.2c0-0.1,0-0.3,0.1-0.3
	c0.1,0.1,0.1,0.2,0.1,0.3c0,0-0.1-0.1-0.2-0.2C22.3,51.9,22.3,52.1,22.3,52.2z"/>
<path class="st16" d="M31.6,92c0.2,0.3,0.4,0.5,0.6,0.8c-0.1,0-0.3-0.1-0.3-0.3c0-0.1-0.2-0.2-0.3-0.3C31.5,92.2,31.6,92.1,31.6,92z
	"/>
<path class="st17" d="M22.2,59.2c-0.5,0.2-0.9,0.5-1.4,0.7c0.3-0.2,0.6-0.4,0.9-0.5c0.1-0.1,0.2-0.2,0.3-0.3
	C22.1,59.1,22.1,59.2,22.2,59.2z"/>
<path class="st16" d="M35,36c0.1,0,0.2,0,0.2,0.1c0.3,0.1,0.7,0.3,1,0.5c0,0,0,0.1,0,0.1c-0.3-0.1-0.6-0.3-0.9-0.2
	C35.3,36.3,35.1,36.1,35,36z"/>
<path class="st2" d="M20.7,39.2c0.2-0.3,0.4-0.6,0.6-0.9c0,0.3,0,0.5-0.4,0.7C20.8,39,20.8,39.1,20.7,39.2z"/>
<path class="st18" d="M21.5,83.9c0,0.1,0.1,0.2,0.1,0.2c0,0.6,0,1.1,0,1.7c0,0.1-0.1,0.2-0.1,0.2C21.5,85.3,21.5,84.6,21.5,83.9z"/>
<path class="st2" d="M22.3,74.5c-0.2-0.2-0.3-0.4-0.5-0.6c0.1,0,0.3,0,0.4,0C22.3,74.1,22.3,74.3,22.3,74.5z"/>
<path class="st15" d="M31.8,34.1c0.1,0.1,0.2,0.1,0.2,0.2c-0.5,0.1-0.5,0.1-0.6-0.4c0,0,0,0,0,0c0,0,0.1,0,0.1,0
	C31.7,34,31.7,34,31.8,34.1z"/>
<path class="st2" d="M37.4,39.3c-0.1,0.2-0.2,0.4-0.4,0.5c0-0.2,0.1-0.4,0.1-0.7C37.3,39.2,37.4,39.2,37.4,39.3z"/>
<path class="st2" d="M21.3,40.9c-0.3,0.2-0.6,0.4-0.9,0.6c0,0,0-0.1,0-0.1c0.3-0.1,0.3-0.5,0.7-0.5C21.2,40.9,21.3,40.9,21.3,40.9z"
	/>
<path class="st2" d="M23.8,58.2c-0.2,0.2-0.5,0.3-0.7,0.5c0-0.1,0-0.1,0-0.2C23.3,58.3,23.5,58.1,23.8,58.2z"/>
<path class="st2" d="M20.3,43.5c0.2-0.4,0.4-0.7,0.6-1.1c0,0.1-0.1,0.2-0.1,0.4c-0.1,0.2-0.2,0.4-0.1,0.6
	C20.6,43.4,20.4,43.4,20.3,43.5z"/>
<path class="st2" d="M25.1,78.4c-0.2-0.3-0.4-0.5-0.5-0.8c0.1,0,0.2,0,0.2,0c0.1,0.2,0.2,0.3,0.4,0.5C25.1,78.1,25.1,78.2,25.1,78.4
	z"/>
<path class="st2" d="M36.6,40c-0.5,0.2-1,0.2-1.5-0.2C35.6,40,36.1,39.9,36.6,40z"/>
<path class="st3" d="M22.5,53.6c0-0.4,0.2-0.8,0-1.2c0,0,0-0.1,0-0.1c0-0.1,0-0.1,0-0.2C22.7,52.5,22.6,53,22.5,53.6
	C22.5,53.5,22.5,53.6,22.5,53.6z"/>
<path class="st3" d="M22.8,36.6C22.8,36.5,22.8,36.5,22.8,36.6c0.1-0.3,0.2-0.4,0.4-0.6c0,0,0,0,0,0c0.1,0,0.2-0.1,0.2-0.1
	C23.3,36.2,23,36.3,22.8,36.6z"/>
<path class="st16" d="M30.8,90.9c0.2,0.2,0.3,0.5,0.5,0.7c-0.2-0.1-0.3-0.2-0.5-0.3c-0.1-0.1-0.2-0.3-0.2-0.5
	C30.7,90.8,30.8,90.8,30.8,90.9z"/>
<path class="st16" d="M32.4,93.1c0.2,0.2,0.3,0.5,0.5,0.7c-0.1,0-0.2,0-0.3,0.1c0-0.1,0.1-0.2,0.1-0.3
	C32.4,93.5,32.4,93.3,32.4,93.1z"/>
<path class="st13" d="M22.4,61.2c-0.3,0.1-0.6,0.1-0.9,0.2c0.1-0.2,0.3-0.3,0.4-0.3c0,0,0.1,0.1,0.1,0.1
	C22.1,61.2,22.3,61.2,22.4,61.2z"/>
<path class="st3" d="M31.8,76.8c-0.2,0.5-0.3,0.9-0.5,1.4C31.5,77.7,31.6,77.2,31.8,76.8z"/>
<path class="st2" d="M20.4,39.7c0.1-0.2,0.2-0.4,0.3-0.5c0,0.2,0.1,0.3,0.1,0.5C20.6,39.7,20.5,39.7,20.4,39.7z"/>
<path class="st17" d="M22.7,63.7c0.2-0.2,0.4-0.5,0.5-0.7c0.1,0.1,0.1,0.3,0,0.4C23,63.5,22.9,63.6,22.7,63.7z"/>
<path class="st19" d="M27.5,33.1c0.2-0.3,0.1-0.6,0.2-1c0,0.4,0.1,0.7,0,1.1C27.6,33.2,27.5,33.2,27.5,33.1z"/>
<path class="st10" d="M20.1,48.1C20.1,48,20.1,48,20.1,48.1c0.1-0.6,0.1-1,0.2-1.5C20.3,47.1,20.2,47.6,20.1,48.1z"/>
<path class="st20" d="M25.7,86c-0.2-0.3-0.2-0.6-0.2-1c0-0.2-0.1-0.3-0.1-0.4c0.2,0.1,0.2,0.2,0.2,0.3c0,0.3,0.1,0.6,0.2,1
	C25.7,85.9,25.7,85.9,25.7,86z"/>
<path class="st17" d="M22.9,58.8c-0.2,0.1-0.4,0.2-0.6,0.3c0-0.1,0-0.2,0-0.4C22.6,58.8,22.7,58.8,22.9,58.8z"/>
<path class="st2" d="M25.7,86c0,0,0-0.1,0-0.1c0.1,0.1,0.1,0.2,0.2,0.3c0,0,0.1,0,0.2,0c0,0.2,0,0.3-0.1,0.5
	C25.9,86.4,25.8,86.2,25.7,86z"/>
<path class="st4" d="M39.3,48.4c0.2-0.1,0.3-0.3,0.5-0.4c0,0.1-0.1,0.3-0.1,0.5C39.5,48.4,39.4,48.4,39.3,48.4z"/>
<path class="st2" d="M22.6,74.9c-0.1-0.1-0.2-0.3-0.3-0.4c0.1-0.1,0.2-0.1,0.3-0.2C22.6,74.5,22.6,74.7,22.6,74.9z"/>
<path class="st2" d="M21.5,41.6c0.1-0.1,0.2-0.3,0.3-0.4c0,0.1,0.1,0.2,0.1,0.4C21.7,41.6,21.6,41.6,21.5,41.6z"/>
<path class="st21" d="M27.7,33.4c0-0.1,0.1-0.2,0.1-0.4c0-0.3,0-0.5,0-0.8c0-0.1,0.1-0.1,0.1,0c0,0.2,0,0.4-0.1,0.6
	c0,0.2,0,0.4,0,0.5C27.8,33.4,27.8,33.4,27.7,33.4z"/>
<path class="st5" d="M38.5,54.9c-0.1,0.4-0.2,0.8-0.3,1.3C38.3,55.7,38.3,55.3,38.5,54.9z"/>
<path class="st2" d="M34.3,45.2c0.2,0.1,0.4,0.2,0.6,0.3c-0.1,0-0.2,0.1-0.4,0.1C34.5,45.4,34.4,45.3,34.3,45.2z"/>
<path class="st18" d="M21.3,82.5c0.2,0.2,0.1,0.6,0.2,0.8c0,0.2,0,0.3,0,0.5C21.4,83.4,21.3,83,21.3,82.5z"/>
<path class="st14" d="M20.4,52.6c0,0.1,0,0.1,0,0.2c0-0.2-0.1-0.5-0.1-0.7c0,0-0.1,0-0.1,0.1c0-0.1,0-0.2,0.2-0.3
	C20.4,52.1,20.4,52.3,20.4,52.6z"/>
<path class="st22" d="M20.5,45.1c0-0.1,0-0.3-0.1-0.3c0.1-0.1,0.1-0.2,0.2-0.3c0,0,0.1,0,0.1,0.1C20.7,44.7,20.7,44.9,20.5,45.1
	L20.5,45.1L20.5,45.1z"/>
<path class="st2" d="M26.4,87.3c-0.1-0.2-0.2-0.4-0.3-0.6c0.1,0,0.2,0,0.3,0C26.2,86.9,26.4,87.1,26.4,87.3z"/>
<path class="st16" d="M22.1,53.1C22.1,53.1,22.2,53.1,22.1,53.1c0,0.4-0.1,0.8-0.1,1.2c0-0.2,0-0.4,0.1-0.5
	C22,53.6,22.1,53.3,22.1,53.1z"/>
<path class="st6" d="M20.4,67.6c0.1-0.3,0.2-0.6,0.3-0.9c0,0.4-0.2,0.7-0.3,1C20.4,67.6,20.4,67.6,20.4,67.6z"/>
<path class="st23" d="M36.6,60.5c-0.1,0.3-0.3,0.6-0.4,0.9c0,0-0.1,0-0.1,0C36.3,61.1,36.4,60.8,36.6,60.5z"/>
<path class="st17" d="M23.2,63c0.2-0.2,0.3-0.4,0.5-0.6C23.7,62.7,23.5,62.9,23.2,63z"/>
<path class="st16" d="M20.4,67.6c0,0,0,0.1,0,0.1c0,0.3,0,0.6-0.1,0.9c0,0.1-0.1,0.1-0.1,0.2c0-0.2,0.1-0.5,0.1-0.7
	C20.3,67.9,20.4,67.7,20.4,67.6z"/>
<path class="st17" d="M20,58.3c0-0.2,0.1-0.4,0.3-0.5c0,0.1,0.1,0.1,0.1,0.2C20.2,58.1,20.2,58.4,20,58.3z"/>
<path class="st15" d="M31.1,33.6c-0.1-0.1-0.1-0.2,0.1-0.3c0.1,0,0.2,0.1,0.2,0.2c0,0,0,0.1,0,0.1C31.3,33.6,31.2,33.6,31.1,33.6z"
	/>
<path class="st23" d="M44.2,53.5c0-0.1-0.1-0.2-0.1-0.3c0-0.3,0-0.6-0.1-0.9c0,0.1,0.1,0.2,0.1,0.3C44.2,53,44.2,53.2,44.2,53.5z"/>
<path class="st10" d="M32.4,34.5c0.2,0.1,0.3,0.2,0.5,0.3c-0.1,0-0.1,0.1-0.2,0.1C32.6,34.8,32.5,34.7,32.4,34.5z"/>
<path class="st15" d="M31.4,33.9C31.3,34,31.1,34,31,33.8c0,0,0.1-0.1,0.1-0.1C31.2,33.7,31.4,33.8,31.4,33.9
	C31.5,33.9,31.4,33.9,31.4,33.9z"/>
<path class="st2" d="M25.8,58c-0.1,0.2-0.2,0.4-0.2,0.5c0,0-0.1-0.1-0.1-0.1C25.5,58.3,25.6,58.1,25.8,58C25.8,58,25.8,58,25.8,58z"
	/>
<path class="st5" d="M36.1,61.4C36.1,61.4,36.2,61.4,36.1,61.4c0,0.2-0.2,0.5-0.3,0.7C35.9,61.8,36,61.6,36.1,61.4z"/>
<path class="st2" d="M40.9,47c0.2-0.1,0.3-0.3,0.5-0.4c-0.1,0.1-0.2,0.2-0.2,0.4C41.1,47.1,41,47,40.9,47z"/>
<path class="st2" d="M20.2,60.2c-0.1,0.1-0.3,0.3-0.4,0.4c0.1-0.1,0.1-0.3,0.2-0.4C20,60.2,20.1,60.2,20.2,60.2z"/>
<path class="st10" d="M19.7,42.5c-0.1,0.2-0.3,0.5-0.4,0.7C19.4,43,19.5,42.7,19.7,42.5z"/>
<path class="st24" d="M31.5,33.9c-0.1-0.1-0.2-0.1-0.3-0.2c0,0,0,0,0-0.1c0.1,0,0.1,0,0.2,0c0.1,0,0.1,0,0.2,0.1
	c0.1,0,0.1,0.1,0.2,0.1c0,0-0.1,0.1-0.1,0.1C31.5,33.9,31.5,33.9,31.5,33.9z"/>
<path class="st2" d="M26.8,88c-0.1-0.2-0.2-0.4-0.3-0.6c0,0,0.1,0,0.2-0.1C26.7,87.6,26.7,87.8,26.8,88z"/>
<path class="st10" d="M33.2,35c0.2,0.1,0.5,0.2,0.7,0.4C33.6,35.3,33.3,35.2,33.2,35z"/>
<path class="st16" d="M34.2,35.5c0.2,0.1,0.5,0.3,0.7,0.4C34.6,35.8,34.4,35.7,34.2,35.5z"/>
<path class="st10" d="M20.4,41.6c-0.1,0.2-0.3,0.3-0.4,0.5C20,41.8,20.1,41.6,20.4,41.6z"/>
<path class="st5" d="M20,49.9c-0.1,0.3-0.2,0.5-0.3,0.8C19.8,50.4,19.9,50.1,20,49.9z"/>
<path class="st3" d="M24.9,83.9c-0.2-0.3,0-0.6,0.1-0.9C25,83.3,24.9,83.6,24.9,83.9C24.9,83.9,24.9,83.9,24.9,83.9z"/>
<path class="st2" d="M22.9,75.3c-0.1-0.1-0.2-0.3-0.3-0.4c0.1,0.1,0.3,0.1,0.4,0.2C23,75.2,23,75.3,22.9,75.3z"/>
<path class="st25" d="M26.1,56.2C26.2,56.2,26.2,56.2,26.1,56.2c0.1,0.2,0.1,0.3,0,0.5c0,0.1-0.1,0.3-0.1,0.4
	C26.1,56.7,26.1,56.4,26.1,56.2z"/>
<path class="st10" d="M19.1,43.1c0-0.1,0.1-0.2,0.1-0.3c0,0.2,0.1,0.3,0.1,0.5c0,0.1-0.1,0.1-0.1,0.2C19.2,43.3,19.2,43.2,19.1,43.1
	z"/>
<path class="st3" d="M20.5,71.9c0,0,0-0.1,0-0.1c0.2,0,0.3,0,0.3,0.2c0,0.1,0,0.3,0.1,0.4c-0.1-0.2-0.1-0.3-0.2-0.5
	C20.6,71.8,20.6,71.9,20.5,71.9z"/>
<path class="st10" d="M19.3,42.4c0.1-0.3,0.2-0.5,0.3-0.8C19.5,42,19.5,42.2,19.3,42.4z"/>
<path class="st5" d="M38.2,56.2c-0.1,0.3-0.2,0.5-0.3,0.8C38,56.7,38,56.4,38.2,56.2z"/>
<path class="st26" d="M43.7,51.7c-0.1,0-0.2,0-0.1,0.1c0,0.1,0,0.3,0,0.4c0,0.1,0,0.1,0,0.2c0-0.2-0.1-0.4-0.1-0.6
	C43.5,51.7,43.7,51.7,43.7,51.7C43.7,51.7,43.7,51.7,43.7,51.7z"/>
<path class="st17" d="M23.9,62.1c0.1-0.1,0.2-0.2,0.2-0.3c0,0.1,0,0.3,0,0.5C24,62.2,23.9,62.2,23.9,62.1z"/>
<path class="st5" d="M36.3,36.6C36.3,36.6,36.3,36.6,36.3,36.6c0.2,0,0.5,0,0.6,0.2C36.7,36.8,36.5,36.7,36.3,36.6z"/>
<path class="st2" d="M21.2,41.9c0.1-0.1,0.2-0.2,0.2-0.3c0,0.1,0,0.2,0.1,0.3C21.4,41.9,21.3,41.9,21.2,41.9z"/>
<path class="st27" d="M37.1,46.4c0.2,0.1,0.4,0.3,0.5,0.5C37.4,46.7,37.3,46.6,37.1,46.4z"/>
<path class="st2" d="M31.4,41.8c0.1,0.2,0.2,0.4,0.3,0.6C31.5,42.3,31.5,42.1,31.4,41.8z"/>
<path class="st20" d="M24.9,83.9C24.9,83.9,24.9,83.9,24.9,83.9c0.1,0.1,0.3,0.2,0.3,0.5C25.1,84.3,25,84.1,24.9,83.9z"/>
<path class="st3" d="M21.2,75.2c0.1,0.2,0.2,0.5,0.3,0.7C21.3,75.7,21.3,75.4,21.2,75.2z"/>
<path class="st2" d="M25.5,79.1c-0.1-0.2-0.2-0.4-0.3-0.6C25.4,78.6,25.5,78.9,25.5,79.1z"/>
<path class="st5" d="M19.7,50.9c0,0.1,0,0.2-0.1,0.2c0-0.1-0.1-0.2-0.1-0.3c0-0.1,0-0.2,0.1-0.3C19.6,50.6,19.7,50.7,19.7,50.9z"/>
<path class="st2" d="M41.5,46.5c0.2-0.1,0.3-0.2,0.5-0.2c0,0,0.1,0,0.1,0C41.8,46.4,41.6,46.4,41.5,46.5z"/>
<path class="st28" d="M30.5,80c-0.1,0.1-0.1,0.2-0.2,0.3c0-0.1,0-0.2,0-0.4C30.4,79.9,30.5,79.9,30.5,80z"/>
<path class="st29" d="M22.5,52c0,0.1,0,0.1,0,0.2c-0.1,0-0.1,0-0.2,0c0-0.1,0-0.3,0-0.4c0.1,0.1,0.1,0.1,0.2,0.2
	C22.5,51.9,22.5,52,22.5,52z"/>
<path class="st16" d="M43.7,46.7C43.7,46.7,43.7,46.7,43.7,46.7c-0.3,0-0.5-0.1-0.7-0.2C43.3,46.5,43.5,46.6,43.7,46.7z"/>
<path class="st27" d="M26.1,58.5C26.1,58.5,26,58.4,26.1,58.5c0-0.2,0-0.4,0.1-0.4C26.2,58.2,26.1,58.4,26.1,58.5z"/>
<path class="st10" d="M29.5,81.8c-0.1,0.1-0.2,0.3-0.2,0.4c0-0.1,0-0.2,0-0.3C29.3,81.9,29.4,81.9,29.5,81.8z"/>
<path class="st2" d="M32.2,43.2C32.2,43.2,32.2,43.2,32.2,43.2c-0.2-0.1-0.3-0.1-0.4-0.2c0,0,0.1-0.1,0.1-0.2
	C32.1,42.9,32.2,43,32.2,43.2z"/>
<path class="st23" d="M43.7,51.7C43.7,51.7,43.7,51.7,43.7,51.7c0-0.1,0-0.2,0-0.2c0,0,0.1,0,0.1,0.1c0,0.1,0.1,0.3,0.1,0.4
	C43.9,51.9,43.8,51.8,43.7,51.7z"/>
<path class="st2" d="M32.9,66.6c-0.1,0.1-0.2,0.2-0.2,0.3c0,0-0.1-0.1-0.1-0.2C32.7,66.7,32.8,66.6,32.9,66.6z"/>
<path class="st10" d="M20,42.1c-0.1,0.2-0.2,0.3-0.3,0.5C19.7,42.3,19.8,42.2,20,42.1z"/>
<path class="st10" d="M29.1,82.5c-0.1,0.1-0.1,0.2-0.2,0.2c0-0.1-0.1-0.2-0.1-0.3C28.9,82.4,29,82.4,29.1,82.5z"/>
<path class="st23" d="M37,59.7c-0.1,0.2-0.2,0.4-0.3,0.5C36.7,60,36.8,59.8,37,59.7z"/>
<path class="st5" d="M30.8,90.9c0,0-0.1-0.1-0.1-0.1c-0.1-0.1-0.1-0.3-0.2-0.4C30.6,90.6,30.7,90.7,30.8,90.9z"/>
<path class="st18" d="M21.5,86c0,0.2,0.1,0.5-0.1,0.7C21.4,86.5,21.4,86.3,21.5,86z"/>
<path class="st16" d="M42,46.3c0,0-0.1,0-0.1,0c0.2-0.1,0.5-0.1,0.7,0.1C42.4,46.3,42.2,46.3,42,46.3z"/>
<path class="st5" d="M19.8,41.1c0.1-0.2,0.2-0.4,0.2-0.6C20,40.7,19.9,40.9,19.8,41.1z"/>
<path class="st3" d="M25.2,82.3c0,0,0,0.1,0,0.1c-0.1,0.2-0.1,0.3-0.2,0.5C25.1,82.6,25.1,82.5,25.2,82.3z"/>
<path class="st5" d="M20.2,49.4c-0.1,0.2-0.1,0.3-0.2,0.5C20.1,49.7,20.1,49.5,20.2,49.4C20.2,49.3,20.2,49.4,20.2,49.4z"/>
<path class="st2" d="M20.6,60c-0.2,0.1-0.3,0.2-0.5,0.2C20.3,60,20.4,60,20.6,60z"/>
<path class="st13" d="M20.6,45.1c0-0.2,0.1-0.4,0.1-0.5C20.8,44.8,20.7,44.9,20.6,45.1z"/>
<path class="st5" d="M23.3,35.3c0.1-0.1,0.2-0.1,0.3-0.2C23.6,35.3,23.4,35.3,23.3,35.3z"/>
<path class="st5" d="M24.1,58.6c0,0,0,0.1,0,0.1c0,0.2-0.1,0.3-0.3,0.4C24,58.9,24,58.8,24.1,58.6z"/>
<path class="st9" d="M26.1,55.2c0,0.2,0,0.3,0,0.5c0,0,0,0-0.1,0C26.1,55.5,26.1,55.4,26.1,55.2C26.1,55.2,26.1,55.2,26.1,55.2z"/>
<path class="st13" d="M21.7,76.9c0.1,0.2,0.1,0.4,0.2,0.5C21.8,77.2,21.8,77,21.7,76.9z"/>
<path class="st30" d="M27.4,89.2c-0.1-0.2-0.1-0.3-0.2-0.5C27.3,88.9,27.4,89,27.4,89.2z"/>
<path class="st5" d="M23.4,59.8c0.1-0.1,0.2-0.2,0.3-0.3c0,0.1,0,0.1,0.1,0.2C23.6,59.7,23.5,59.8,23.4,59.8z"/>
<path class="st2" d="M22.1,40.8c0.1-0.3-0.1-0.1-0.2-0.1c0,0,0-0.1,0-0.1c0.1,0,0.2,0,0.4,0C22.3,40.7,22.2,40.8,22.1,40.8z"/>
<path class="st2" d="M21.9,40.6C21.9,40.6,21.9,40.7,21.9,40.6c-0.1,0.1-0.3,0.2-0.5,0.3C21.6,40.8,21.8,40.7,21.9,40.6z"/>
<path class="st13" d="M23.1,61c-0.2,0.1-0.3,0.1-0.5,0.2C22.8,61.1,23,61,23.1,61z"/>
<path class="st5" d="M23.8,35.5c-0.1,0-0.2,0-0.2,0c0,0,0-0.1,0-0.1C23.7,35.5,23.8,35.5,23.8,35.5C23.8,35.5,23.8,35.5,23.8,35.5z"
	/>
<path class="st2" d="M31.8,42.4c0.1,0.1,0.2,0.3,0.2,0.4C31.8,42.8,31.8,42.6,31.8,42.4z"/>
<path class="st31" d="M34.9,39.7c-0.2-0.1-0.3-0.1-0.5-0.2C34.6,39.5,34.7,39.5,34.9,39.7z"/>
<path class="st10" d="M28.2,93.5c-0.1-0.1-0.2-0.2-0.3-0.3C28.2,93.1,28.2,93.3,28.2,93.5z"/>
<path class="st16" d="M19.8,69.2c0.1-0.1,0.2-0.1,0.2-0.2C20,69.3,20,69.3,19.8,69.2z"/>
<path class="st2" d="M21.3,38.2c0.1-0.1,0.1-0.2,0.2-0.2C21.5,38.3,21.5,38.3,21.3,38.2z"/>
<path class="st2" d="M25.5,58.6c0,0.1,0,0.3-0.2,0.3C25.3,58.7,25.4,58.6,25.5,58.6z"/>
<path class="st5" d="M23.8,34.9c0.1-0.1,0.3-0.2,0.4-0.2C24.1,34.8,24,34.9,23.8,34.9z"/>
<path class="st12" d="M28.9,87.5c0.1,0.2,0.1,0.3,0.2,0.5C29,87.9,28.9,87.7,28.9,87.5z"/>
<path class="st16" d="M22,54.3c-0.1,0.2-0.1,0.3-0.2,0.5C21.8,54.6,21.9,54.4,22,54.3z"/>
<path class="st32" d="M21.1,87.8C21,88,21,88.1,20.9,88.3C21,88.1,21,88,21.1,87.8z"/>
<path class="st25" d="M25.8,58C25.8,58,25.8,58,25.8,58c0-0.2,0.1-0.3,0.2-0.5C25.9,57.7,25.8,57.9,25.8,58z"/>
<path class="st5" d="M29.6,88.9c0.1,0.1,0.2,0.3,0.2,0.4C29.6,89.2,29.6,89.1,29.6,88.9z"/>
<path class="st16" d="M42.6,46.3c0.2,0.1,0.3,0.1,0.5,0.2C42.9,46.5,42.7,46.5,42.6,46.3z"/>
<path class="st5" d="M29.8,89.3c0.1,0.1,0.2,0.3,0.2,0.4C29.9,89.6,29.8,89.5,29.8,89.3z"/>
<path class="st2" d="M21.5,40.8c-0.1,0-0.1,0.1-0.2,0.1c0-0.1-0.1-0.1-0.1-0.2c0,0,0,0,0,0C21.3,40.8,21.4,40.8,21.5,40.8z"/>
<path class="st10" d="M19.6,41.4c0.1-0.1,0.1-0.3,0.2-0.4C19.8,41.2,19.7,41.4,19.6,41.4z"/>
<path class="st5" d="M22.9,35.5c0.1-0.1,0.2-0.2,0.3-0.2C23.2,35.4,23.1,35.5,22.9,35.5z"/>
<path class="st5" d="M37.4,58.7c-0.1,0.1-0.1,0.3-0.2,0.4C37.2,59,37.3,58.8,37.4,58.7z"/>
<path class="st3" d="M31.3,78.2c-0.1,0.1-0.1,0.3-0.2,0.4C31.1,78.4,31.2,78.3,31.3,78.2z"/>
<path class="st32" d="M20.1,55.8c0.1-0.1,0.1-0.3,0.2-0.4C20.3,55.6,20.3,55.7,20.1,55.8z"/>
<path class="st28" d="M30.1,80.6c-0.1,0-0.2,0.1-0.2,0.1C30,80.5,30,80.5,30.1,80.6C30.1,80.6,30.1,80.6,30.1,80.6z"/>
<path class="st33" d="M30.8,40.3c0.1,0.1,0.1,0.3,0.2,0.4C30.8,40.6,30.8,40.4,30.8,40.3z"/>
<path class="st33" d="M31,40.7c0.1,0.1,0.1,0.3,0.2,0.4C31.1,40.9,31,40.8,31,40.7z"/>
<path class="st23" d="M37.1,59.3c-0.1,0.1-0.1,0.3-0.2,0.4C37,59.5,37,59.4,37.1,59.3z"/>
<path class="st5" d="M37.6,58.1c-0.1,0.1-0.1,0.3-0.2,0.4C37.5,58.4,37.5,58.2,37.6,58.1z"/>
<path class="st3" d="M20.9,74.4c0.1,0.1,0.1,0.3,0.2,0.4C21,74.6,20.9,74.5,20.9,74.4z"/>
<path class="st13" d="M20.1,44c0.1-0.1,0.1-0.3,0.2-0.4C20.3,43.8,20.3,43.9,20.1,44z"/>
<path class="st13" d="M38,47.5c0.1,0.1,0.1,0.2,0.2,0.4C38.1,47.8,38,47.7,38,47.5z"/>
<path class="st2" d="M19.4,59.5c0.1-0.1,0.1-0.3,0.2-0.4C19.6,59.2,19.6,59.4,19.4,59.5z"/>
<path class="st16" d="M32.2,92.8c0.1,0.1,0.2,0.2,0.2,0.3C32.2,93.1,32.1,93,32.2,92.8z"/>
<path class="st33" d="M30.7,39.9c0.1,0.1,0.1,0.2,0.2,0.4C30.8,40.2,30.7,40,30.7,39.9z"/>
<path class="st18" d="M21.4,81.8C21.4,81.8,21.4,81.8,21.4,81.8c0.1,0.1,0.1,0.1,0.1,0.2c0,0.1,0,0.1,0,0.2
	C21.5,82.1,21.5,82,21.4,81.8z"/>
<path class="st34" d="M20.2,49.4C20.2,49.4,20.2,49.3,20.2,49.4c0-0.1,0-0.1,0-0.2c0.1,0,0.1-0.1,0.2,0c0,0.1,0,0.1,0,0.2
	C20.3,49.4,20.2,49.4,20.2,49.4z"/>
<path class="st12" d="M26.8,32.6c0.1,0.1,0.2,0.1,0.3,0.2C27,32.7,26.9,32.7,26.8,32.6z"/>
<path class="st35" d="M23.4,35.8c-0.1,0-0.2,0.1-0.2,0.1c0-0.1,0.1-0.1,0.1-0.2C23.3,35.8,23.4,35.8,23.4,35.8L23.4,35.8
	C23.4,35.8,23.4,35.8,23.4,35.8z"/>
<path class="st36" d="M23.4,35.8C23.4,35.7,23.5,35.7,23.4,35.8C23.5,35.7,23.5,35.7,23.4,35.8C23.5,35.7,23.4,35.7,23.4,35.8
	C23.4,35.7,23.4,35.8,23.4,35.8z"/>
<path class="st37" d="M20.8,56.8c0,0,0.1,0,0.1-0.1C20.9,56.7,20.9,56.8,20.8,56.8C20.8,56.8,20.8,56.8,20.8,56.8z"/>
<path class="st38" d="M26.5,55.7c0.1,0.4,0.1,0.9,0,1.3C26.5,56.6,26.5,56.2,26.5,55.7z"/>
<path class="st39" d="M33.2,33.8c-0.1-0.1-0.1-0.1-0.2-0.2c0.2,0,0.4,0,0.7,0C33.6,33.8,33.4,33.8,33.2,33.8z"/>
<path class="st40" d="M35.1,31.7c0-0.1-0.1-0.1-0.1-0.2c0.1-0.1,0.2-0.2,0.3-0.4C35.3,31.4,35.3,31.6,35.1,31.7z"/>
<path class="st22" d="M19.6,46.1c0,0,0.1,0,0.1,0c0,0.1-0.1,0.2-0.1,0.4C19.5,46.3,19.5,46.2,19.6,46.1z"/>
<path class="st41" d="M19.1,43.1c0,0.1,0.1,0.3,0.1,0.4c0,0.1-0.1,0.2-0.1,0.3c0-0.1-0.1-0.2-0.1-0.3C19.1,43.3,19.1,43.2,19.1,43.1
	z"/>
<path class="st42" d="M19.1,43.5c0,0.1,0.1,0.2,0.1,0.3c0,0.1,0,0.2-0.1,0.2C19,43.8,19,43.6,19.1,43.5z"/>
<path class="st43" d="M19.5,51.3c0,0.1-0.1,0.2-0.1,0.3c-0.1-0.2,0-0.4,0-0.5C19.5,51.2,19.5,51.2,19.5,51.3z"/>
<path class="st38" d="M24.4,60.3c0.1-0.1,0.3-0.3,0.4-0.4C24.7,60.1,24.6,60.2,24.4,60.3z"/>
<path class="st44" d="M31.6,33.9c0,0,0.1-0.1,0.1-0.1c0.1,0.1,0.2,0.1,0.3,0.2c-0.1,0-0.1,0.1-0.2,0.1C31.7,34,31.7,34,31.6,33.9z"
	/>
<path class="st45" d="M19.5,51.3c0-0.1-0.1-0.2-0.1-0.2c0-0.1,0.1-0.2,0.1-0.3c0,0.1,0.1,0.2,0.1,0.3C19.6,51.2,19.6,51.3,19.5,51.3
	z"/>
<path class="st46" d="M26.3,55.8c0-0.1,0-0.2,0-0.3c0,0,0.1,0,0.1,0c0,0.1,0,0.2,0.1,0.3C26.4,55.7,26.4,55.7,26.3,55.8z"/>
<path class="st38" d="M25.4,59.6c-0.1,0.1-0.2,0.3-0.2,0.4C25.3,59.8,25.4,59.7,25.4,59.6z"/>
<path class="st47" d="M22.3,36.9c-0.1,0.1-0.2,0.2-0.2,0.3C22.2,37.1,22.3,37,22.3,36.9z"/>
<path class="st38" d="M26.2,56.6c0-0.2,0-0.3,0-0.5c0,0,0,0,0.1,0C26.3,56.3,26.4,56.5,26.2,56.6z"/>
<path class="st18" d="M21.8,83.2c0.1,0.6,0.1,1.2,0.1,1.8c0,0.1-0.1,0.3,0.1,0.3c0,0.1-0.1,0.1-0.1,0.2c0,0-0.1-0.1-0.1-0.1
	c0.1-0.5,0.1-1.1,0-1.6C21.8,83.6,21.8,83.4,21.8,83.2z"/>
<path class="st48" d="M28.7,94.1c0,0.3,0,0.6,0,0.8c0,0,0,0,0,0C28.7,94.7,28.7,94.4,28.7,94.1C28.7,94.1,28.7,94.1,28.7,94.1z"/>
<path class="st18" d="M21.7,82.8c0,0.1,0.1,0.3,0.1,0.4C21.8,83.1,21.7,82.9,21.7,82.8z"/>
<path class="st1" d="M56,65.6c-0.1-1-0.4-1.2-1.3-1.4c-0.2-0.1-0.5-0.1-0.7-0.2c-0.1,0-0.2-0.2-0.2-0.3c0-0.1,0.1-0.2,0.2-0.3
	c0.2,0,0.4,0,0.6,0c2.7,0,5.4,0,8,0c1.2,0,2.5,0.1,3.6,0.5c0.4,0.1,0.8,0.3,1.1,0.5c1.4,0.7,2.2,1.8,2.2,3.4c0.1,1.6-0.6,2.9-2,3.7
	c-0.5,0.3-1.1,0.5-1.7,0.8c-0.1,0.1-0.3,0.1-0.5,0.2c0.2,0.2,0.3,0.5,0.4,0.6c1.6,2.1,3.2,4.3,4.8,6.4c0.2,0.3,0.6,0.5,0.9,0.7
	c0.3,0.2,0.5,0.3,0.3,0.8c-0.3,0-0.7,0-1.1,0c-1.2,0-2.4,0-3.6,0c-0.5,0-0.8-0.1-1-0.5c-1.7-2.3-3.4-4.6-5.1-6.8
	c-0.2-0.2-0.3-0.4-0.6-0.7c0,0.4-0.1,0.5-0.1,0.7c0,1.4,0,2.8,0,4.3c0,0.2,0,0.5,0,0.7c0.1,1.1,0.5,1.4,1.5,1.6
	c0.3,0.1,0.8,0,0.7,0.5c-0.1,0.4-0.5,0.3-0.7,0.3c-2.5,0-4.9,0-7.4,0c-0.2,0-0.4,0-0.6-0.1c-0.2-0.3-0.2-0.5,0.2-0.6
	c0.3-0.1,0.5-0.1,0.8-0.2c0.7-0.2,1.1-0.5,1.1-1.3l0,0c0-0.3,0.1-0.6,0.1-1c0-3.8,0-7.6,0-11.3C56.2,66.2,56.1,66,56,65.6L56,65.6z
	 M60.5,71.9c1.2,0.1,2.3-0.1,3.3-0.5c0.7-0.3,1-0.8,1.2-1.5c0.3-1,0.3-2.1,0.1-3.2c-0.3-1.8-1.4-2.6-3.2-2.5c-0.1,0-0.2,0-0.3,0
	c-0.9,0.1-1.2,0.3-1.2,1.2c0,1.9,0,3.8,0,5.7C60.4,71.5,60.5,71.6,60.5,71.9z M54.2,63.6C54.2,63.6,54.2,63.6,54.2,63.6
	c3,0.1,6,0.1,8.9,0.1c0,0,0-0.1,0-0.1C60.2,63.6,57.2,63.6,54.2,63.6z M54.1,80.6c0.7,0.2,7.7,0.2,8.4,0
	C59.7,80.6,56.9,80.6,54.1,80.6z M67.3,80.6c1.5,0.1,3,0.2,4.5,0C70.3,80.6,68.8,80.6,67.3,80.6z"/>
<path class="st49" d="M53.9,41.9c0.3,0,0.6,0,0.8,0c2.5,0,5,0,7.5,0c1.2,0,2.4,0.1,3.5,0.5c0.6,0.2,1.1,0.4,1.6,0.8
	c2,1.2,2.2,4.5,0,5.8c-0.7,0.4-1.4,0.7-2.2,1.1c0.2,0.1,0.4,0.2,0.6,0.2c0.9,0.2,1.7,0.6,2.4,1.1c2.1,1.6,2.2,4.5,0.2,6.3
	c-1.1,0.9-2.4,1.4-3.8,1.6c-0.6,0.1-1.3,0.2-2,0.2c-2.7,0-5.4,0-8.1,0c-0.2,0-0.3,0-0.5,0c-0.2-0.3-0.2-0.6,0.2-0.7
	c0.2,0,0.4-0.1,0.6-0.1c0.8-0.2,1.2-0.6,1.4-1.4c0-0.3,0-0.5,0-0.8c0-3.8,0-7.7,0-11.5c0-0.1,0-0.2,0-0.3c0-1.1-0.3-1.9-1.7-2
	C54.1,42.6,53.7,42.6,53.9,41.9z M60.4,50.5c0,0.2-0.1,0.3-0.1,0.4c0,2,0,3.9,0,5.9c0,0.3,0,0.5,0.1,0.8c0.1,0.4,0.4,0.7,0.8,0.8
	c1.6,0.4,3.2-0.4,3.6-2c0.4-1.3,0.4-2.6,0-3.9c-0.3-0.9-0.8-1.6-1.7-1.9C62.3,50.4,61.4,50.4,60.4,50.5z M60.4,49.8
	c0.8,0,1.5,0,2.2-0.2c0.9-0.2,1.4-0.8,1.7-1.6c0.3-1.2,0.3-2.3,0-3.5c-0.4-1.4-1.7-2-3.1-1.6c-0.4,0.1-0.7,0.4-0.7,0.8
	c0,0.2,0,0.4,0,0.7c0,1.6,0,3.2,0,4.8C60.3,49.3,60.4,49.5,60.4,49.8z"/>
<path class="st1" d="M84.7,86.2c0-0.1,0-0.3,0-0.4c0.1-0.1,0.3-0.2,0.5-0.2c0.5-0.2,0.8-0.6,0.8-1.1c0-0.2,0-0.5,0-0.7
	c0-4.1,0-8.2,0-12.2c0-0.2,0-0.4,0-0.6c0-0.6-0.2-1.1-0.9-1.3c-0.3-0.1-0.5-0.2-0.3-0.6c1.6,0,3.2,0,4.8,0c0,0.5,0.1,0.9,0.1,1.3
	c0.1,0,0.1,0.1,0.2,0.1c0.1-0.1,0.1-0.3,0.2-0.4c1.4-2,4.6-1.7,6-0.3c0.8,0.8,1.4,1.7,1.6,2.8c0.4,1.7,0.4,3.4-0.2,5
	c-0.4,1.1-1,2-1.9,2.8c-1.3,1.1-3.6,1.4-5.2,0c-0.1-0.1-0.3-0.2-0.5-0.4c0,0.3-0.1,0.4-0.1,0.6c0,1,0,2.1,0,3.1c0,1.2,0.4,1.6,1.5,2
	c0.2,0.1,0.5,0.1,0.4,0.5C89.5,86.2,87.1,86.2,84.7,86.2z M89.9,75.1c0,0.9,0,1.8,0,2.6c-0.1,0.8,0.3,1.3,0.8,1.7
	c1,0.8,2.4,0.5,2.9-0.7c0.2-0.4,0.3-0.9,0.4-1.3c0.1-1.1,0.2-2.3,0.1-3.4c0-0.9-0.2-1.8-0.5-2.7c-0.2-0.8-0.9-1.2-1.7-1.1
	c-1,0.1-2,1.2-2,2.2C89.8,73.2,89.9,74.2,89.9,75.1z M89.7,72.2c0,0-0.1,0-0.1,0c0,2,0,4.1,0,6.1c0,0,0.1,0,0.1,0
	C89.7,76.3,89.7,74.2,89.7,72.2z"/>
<path class="st1" d="M114.2,63.5c0,0,0.1-0.1,0.1-0.1c1.5,0,3.1,0,4.6,0c0,0,0.1,0.1,0.2,0.1c0,1,0,2.1,0,3.1c0,1.1,0,2.1,0,3.3
	c0.3-0.2,0.5-0.3,0.7-0.5c2-1.5,4.9-1.1,6.4,1.1c0.7,1,1.1,2.1,1.1,3.4c0.1,1.4-0.1,2.8-0.7,4.2c-1.3,2.9-5.7,4.3-8.4,2
	c-0.1-0.1-0.2-0.2-0.4-0.3c-0.6,0.4-1.3,0.8-1.9,1.2c-0.1-0.5-0.2-0.9-0.2-1.4c0-4.5,0-9,0-13.4c0-0.3,0-0.6,0-0.9
	c-0.1,0.2-0.2,0.5-0.2,0.7c0,4.7,0,9.3,0,14c0,0.2,0,0.4,0,0.6c0.1,0.2,0.2,0.3,0.3,0.4c-0.1,0-0.3,0.1-0.5,0.2c0-0.4,0-0.7,0-1.1
	c0-4.7,0-9.4,0-14c0-0.3,0-0.6,0-0.9c-0.1-0.6-0.3-1.1-1-1.2C114.2,64,113.9,63.9,114.2,63.5c0.1,0.1,0.2,0.2,0.3,0.2
	c1.1,0,2.3,0,3.4-0.1c0.8,0,0.8,0,0.8,0.8c0,1.5,0,3.1,0,4.6c0,0.2,0,0.4,0,0.6c0.2-1.6,0.2-5.4,0-6.1
	C117.3,63.5,115.7,63.5,114.2,63.5z M119.1,75.1c0,1,0,1.9,0,2.9c0,0.4,0.1,0.8,0.2,1.1c0.2,0.7,0.6,1.2,1.4,1.3
	c0.8,0.1,1.5-0.1,1.9-0.9c0.3-0.5,0.5-1,0.6-1.5c0.3-1.6,0.3-3.3,0.1-5c-0.1-0.6-0.3-1.2-0.5-1.8c-0.4-0.9-1.3-1.3-2.2-1.1
	c-0.8,0.2-1.5,1-1.5,1.9C119.1,73.1,119.1,74.1,119.1,75.1z"/>
<path class="st1" d="M188.3,79c-0.1,0.7,0.2,1.1,0.8,1.3c0.1,0,0.2,0.1,0.3,0.2c-0.4,0.1-0.9,0.1-1.3,0.2c-1,0-1.9,0-2.9,0
	c-0.5,0-1-0.1-1.4-0.3l0,0c0.2-0.2,0.4-0.4,0.5-0.6l0,0c0.1-0.3,0.2-0.5,0.2-0.8c0-2.2,0-4.4,0-6.6c0-0.3-0.1-0.6-0.2-0.9l0,0
	c-0.3-0.9-0.9-1.2-1.8-0.9c-1,0.3-1.6,1.2-1.6,2.2c0,2.1,0,4.2,0,6.2c0,0.6,0.2,1.1,0.7,1.3c-0.3,0.2-0.6,0.2-1,0.2
	c-1.2,0-2.5,0.1-3.7,0.2c-0.1-0.3-0.2-0.4-0.3-0.6c0.4-0.4,0.5-0.8,0.5-1.3c0-2.5,0-5.1,0-7.6c0-0.7-0.2-1.3-1.1-1.5
	c-0.2-0.1-0.4-0.2-0.3-0.5c0.6-0.2,3.9-0.3,5-0.1c0,0.4,0.1,0.9,0.1,1.5c0.2-0.2,0.4-0.3,0.6-0.5c1.2-1.2,2.6-1.6,4.2-1.3
	c1.5,0.3,2.3,1.2,2.4,2.7c0,0.5,0,1.1,0,1.6c0,1.7,0,3.3,0,5C188.2,78.4,188.3,78.7,188.3,79L188.3,79z"/>
<path class="st1" d="M104.3,78.7c0.6,1,1.4,1.2,2.4,0.7c0.8-0.4,1.2-0.9,1.2-1.8c-0.1-2.1,0-4.2,0-6.3c0-0.6-0.2-1.2-0.7-1.6
	c0.2,0,0.4,0.1,0.6,0.2c-0.1-0.4,0.1-0.5,0.4-0.5c0.7,0,1.5,0,2.2,0c0.6,0,0.7,0.1,0.7,0.7c0,1.3,0,2.5,0,3.8c0,1.9,0.2,3.8-0.2,5.6
	c0,0.1,0,0.1,0.1,0.2c0,0,0.1,0,0.1,0c0-0.3,0.1-0.5,0.1-0.8c0.1,0,0.1,0,0.2,0c0.1,0.1,0.1,0.1,0.2,0.2c0.1,0.5,0.5,0.7,0.9,0.8
	c0.2,0.1,0.5,0.1,0.4,0.4c0,0.1-0.3,0.2-0.4,0.3c-0.7,0.1-1.4,0.1-2.1,0.3c-0.8,0.1-1.6,0.3-2.5,0.5c0-0.5,0-0.9-0.1-1.5
	c-0.3,0.2-0.6,0.4-0.8,0.6c-0.9,0.7-2,1.1-3.1,1c-0.5,0-1-0.2-1.5-0.4c-1.1-0.4-1.6-1.3-1.7-2.4c-0.1-0.7-0.1-1.5-0.1-2.2
	c0-1.7,0-3.5,0-5.2c0-0.7-0.2-1.3-1-1.5c-0.3-0.1-0.5-0.2-0.3-0.5c0.6,0,1.1,0,1.7,0c0.8,0,1.6,0,2.5,0c0.5,0,0.6,0.1,0.6,0.6
	c0,0.2,0,0.4,0,0.6c0,2.5,0,4.9,0,7.4C104.2,78,104.3,78.3,104.3,78.7z"/>
<path class="st1" d="M167.4,79.4c0.3,0.3,0.3,0.5,0,0.7c-0.9,0.9-2,1.3-3.3,1.1c-0.6-0.1-1.1-0.4-1.3-1c-0.1-0.2-0.2-0.3-0.3-0.6
	c-0.3,0.2-0.5,0.4-0.7,0.5c-1.1,0.7-2.2,1.2-3.5,1.1c-1.2-0.1-2.2-0.5-2.6-1.7c-0.4-1.2-0.2-2.3,0.8-3.2c0.8-0.8,1.8-1.1,2.8-1.5
	c0.9-0.3,1.8-0.6,2.7-0.9c0.4-0.1,0.6-0.3,0.6-0.8c0-0.6,0-1.3,0-1.9c-0.1-1.1-0.6-1.6-1.7-1.7c-0.4,0-0.9,0-1.3,0.1
	c-0.8,0.2-1,0.7-0.5,1.4c0.2,0.2,0.3,0.5,0.4,0.8c0.2,0.9-0.3,1.6-1.1,1.8c-0.9,0.2-1.9-0.2-2.2-1c-0.3-0.9,0-2,0.8-2.7
	c0.4-0.3,0.9-0.6,1.3-0.8c2.1-0.8,4.2-0.7,6.2,0.2c1.1,0.5,1.6,1.5,1.7,2.6c0.1,1.1,0.1,2.2,0.1,3.3c0,1.1,0,2.3,0,3.5
	c0,0.8,0.2,1,1,0.7C167.3,79.4,167.3,79.4,167.4,79.4z M162.5,74.7c-1,0.2-1.9,0.7-2.5,1.4c-0.6,0.7-0.7,1.5-0.6,2.3
	c0.1,0.6,0.6,1.1,1.1,1.2c1,0.2,2-0.7,2-1.7c0-0.8,0-1.6,0-2.4C162.5,75.2,162.5,75,162.5,74.7z"/>
<path class="st49" d="M78.9,53.5c0-1.3,0.3-2.6,1-3.7c2.4-3.7,7.8-3.6,10,0.2c1.4,2.4,1.3,4.9-0.3,7.2c-1.4,2.1-3.5,2.8-5.9,2.4
	c-2.4-0.4-3.9-1.9-4.6-4.2C79,54.8,79,54.1,78.9,53.5z M82.8,53.3c0.1,1.2,0.1,2.1,0.2,3c0.1,0.6,0.2,1.1,0.4,1.7
	c0.3,0.7,0.9,1,1.7,1c0.8-0.1,1.3-0.5,1.5-1.2c0.1-0.3,0.2-0.5,0.2-0.8c0.3-2.3,0.3-4.5,0-6.8c-0.1-0.4-0.2-0.7-0.3-1.1
	c-0.2-0.6-0.7-1-1.4-1c-0.7,0-1.3,0.2-1.6,0.8c-0.2,0.4-0.4,0.8-0.4,1.2C82.9,51.2,82.9,52.3,82.8,53.3z"/>
<path class="st49" d="M76.7,58.3c0.2,0.2,0.5,0.3,0.7,0.5c0.3,0.1,0.3,0.3,0.2,0.6c-2,0.1-4,0-6.1,0c-0.2-0.3-0.2-0.6,0.2-0.7
	c0.8-0.2,0.9-0.8,0.9-1.5c0-4.4,0-8.8,0-13.2c0-0.7-0.1-1.3-1-1.5c-0.3-0.1-0.4-0.3-0.2-0.6c1.6,0,3.2,0,4.9,0c0,0.4,0,0.7,0,1
	c0,4.6,0,9.2,0,13.9c0,0.3,0.1,0.7,0.1,1C76.6,58,76.6,58.1,76.7,58.3z"/>
<path class="st1" d="M83.6,74.6c-2.2,0-4.4,0-6.7,0c0,1.6,0.3,3.1,1.4,4.2c0.8,0.8,2.3,0.8,3.4,0.2c0.4-0.3,0.7-0.6,1.1-0.9
	c0.3-0.3,0.6-0.3,0.9,0.1c-1,1.6-2.3,2.9-4.3,3.1c-1.9,0.2-3.5-0.4-4.8-1.8c-0.7-0.8-1.1-1.7-1.2-2.7C73,75,73,73.3,73.7,71.7
	c1.5-3.1,5.5-4,8-1.9c1.1,0.9,1.5,2.1,1.7,3.4C83.5,73.7,83.5,74.1,83.6,74.6z M80.3,73.7c0-1.1,0-2.2-0.4-3.2
	c-0.2-0.5-0.6-0.9-1.1-0.9c-0.6,0-1.1,0.1-1.4,0.7c-0.5,1.1-0.5,2.2-0.6,3.4C78,73.7,79.1,73.7,80.3,73.7z M77,74c1,0,2,0,3,0
	C79,73.9,78,73.9,77,74z"/>
<path class="st1" d="M133.9,79.5c0.2,0.2,0.3,0.4,0.5,0.6c0.2,0.1,0.4,0.2,0.6,0.3c-0.3,0.1-0.6,0.2-0.9,0.2c-1.4,0-2.8,0-4.2,0
	c-0.3,0-0.6-0.1-0.9-0.2c0.2-0.1,0.3-0.2,0.5-0.3c0.4-0.2,0.7-0.5,0.7-1c0-0.3,0-0.6,0-0.9c0-4,0-8,0-12.1c0-0.3,0-0.6,0-0.9
	c0-0.5-0.2-1-0.7-1.1c-0.1,0-0.3-0.1-0.4-0.2c-0.2-0.2-0.2-0.4,0.1-0.5c0,0,0.1,0,0.2,0c1.5,0,3,0,4.6,0c0,0.4,0.1,0.7,0.1,1
	c0,4.7,0,9.4,0,14C133.8,78.8,133.9,79.2,133.9,79.5L133.9,79.5z M130.2,78.9C130.2,78.9,130.2,78.9,130.2,78.9
	c0.1-4.4,0.1-8.7,0.1-13.1c0,0-0.1,0-0.1,0C130.2,70.1,130.2,74.5,130.2,78.9z"/>
<path class="st1" d="M153.9,78.3c0.4,0.2,0.5,0.4,0.2,0.7c-1.1,1.3-2.5,2.2-4.2,2.3c-4.4,0.3-6.6-3.5-6.2-7c0.2-1.7,0.9-3.1,2.1-4.2
	c1.7-1.5,4.8-1.9,6.8-0.7c0.9,0.5,1.4,1.3,1.3,2.4c-0.1,0.9-0.7,1.5-1.6,1.5c-0.9,0-1.5-0.4-1.7-1.3c-0.1-0.4,0-0.8,0-1.2
	c0-0.9-0.5-1.3-1.4-1.1c-0.8,0.1-1.2,0.7-1.4,1.4c-0.5,1.3-0.6,2.7-0.4,4.1c0.1,1,0.4,2,0.9,2.9c1.2,1.9,3.4,2.2,5,0.7
	C153.6,78.5,153.7,78.4,153.9,78.3z"/>
<path class="st49" d="M102.5,56.6c0.1,0.2,0.3,0.3,0.4,0.5c-1.4,1.7-3,2.8-5.3,2.7c-2.2-0.1-3.7-1.2-4.7-3c-1.3-2.5-0.8-5.7,1.1-7.8
	c1.6-1.7,4.6-2.3,6.8-1.3c0.8,0.4,1.5,0.9,1.7,1.8c0.4,1.3-0.5,2.4-1.7,2.3c-0.8,0-1.4-0.5-1.5-1.4c0-0.4,0-0.8,0-1.2
	c0-0.8-0.5-1.2-1.3-1.1c-0.6,0.1-1.1,0.4-1.3,1c-0.2,0.5-0.4,1.1-0.5,1.7c-0.3,1.8-0.2,3.5,0.5,5.1c0.2,0.3,0.4,0.7,0.6,1
	c1.1,1.4,3,1.6,4.4,0.6C101.8,57.2,102.1,56.9,102.5,56.6z"/>
<path class="st1" d="M174.7,80.8c-0.2,0.1-0.4,0.1-0.6,0.2c-1.6,0-3.3,0-4.9,0c-0.1,0-0.3,0-0.4,0c-0.1,0-0.2-0.2-0.3-0.3
	c0-0.1,0.1-0.2,0.2-0.3c0.1-0.1,0.2-0.1,0.3-0.1c0.5-0.2,0.7-0.5,0.8-1c0-0.2,0-0.4,0-0.6c0-2.5,0-4.9,0-7.4c0-0.2,0-0.4,0-0.6
	c0-0.4-0.2-0.8-0.7-0.9c-0.2-0.1-0.3-0.1-0.4-0.2c-0.1-0.1-0.1-0.2-0.1-0.3c0-0.1,0.1-0.1,0.2-0.2c0,0,0.1,0,0.1,0
	c1.5,0,3.1,0,4.7,0c0,0.4,0.1,0.7,0.1,0.9c0,2.8,0,5.5,0,8.3c0,0.3,0,0.5,0,0.8c0,0.6,0.2,1,0.8,1.2
	C174.6,80.3,174.9,80.4,174.7,80.8c-0.1-0.1-0.3-0.2-0.4-0.2c-0.5,0-0.9,0-1.4,0c-1.4,0-2.8,0-4.1,0c0,0.1,0,0.1,0,0.2
	C170.7,80.8,172.7,80.8,174.7,80.8z M170.1,70.6c-0.3,1.6-0.2,8.1,0,8.5C170.1,76.3,170.1,73.4,170.1,70.6z"/>
<path class="st1" d="M136.2,80.5c1.1-0.3,1.3-1.2,1.3-2.2c0-2.2,0-4.4,0-6.6c0-0.3,0-0.5,0-0.8c-0.1-0.5-0.3-0.9-0.8-1.1
	c-0.1,0-0.3-0.1-0.4-0.2c-0.2-0.2-0.1-0.4,0.1-0.5c0.1,0,0.2,0,0.2,0c1.4,0,2.8,0,4.3,0c0,0,0.1,0,0.2,0.1c0,0.3,0,0.6,0,0.9
	c0,2.7,0,5.4,0,8.1c0,0.3,0,0.5,0,0.8c0,0.6,0.2,1.1,0.9,1.3c0.1,0,0.2,0.3,0.3,0.4c-0.1,0.1-0.3,0.3-0.4,0.3c-1.8,0-3.7,0-5.5,0
	c-0.1,0-0.2-0.1-0.3-0.1c2,0,4,0,5.9,0c0-0.1,0-0.1,0-0.2c-1.5,0-3.1,0-4.6,0C137.1,80.6,136.7,80.5,136.2,80.5z"/>
<path class="st1" d="M173.7,65.1c0,1.1-0.9,2-2,2c-1.1,0-2.1-0.9-2.1-2c0-1.1,1-2,2-2C172.8,63.1,173.7,64,173.7,65.1z"/>
<path class="st1" d="M141.4,65.2c0,1.2-0.9,2-2.1,2c-1.2,0-2-0.9-2-2.1c0-1.1,0.9-2,2-1.9C140.5,63.1,141.5,64.1,141.4,65.2z"/>
<path class="st1" d="M76.5,67.1c1.2-1.4,2.3-2.8,3.4-4.1c0.2-0.3,0.6-0.4,1-0.6c0.6-0.2,1.1,0.1,1.3,0.6c0.2,0.5,0.2,1-0.2,1.4
	c-0.2,0.2-0.5,0.4-0.7,0.5c-1,0.6-1.9,1.2-2.9,1.9C77.7,67.3,77.7,67.3,76.5,67.1z"/>
<path class="st1" d="M111.4,78.8c0,0.3-0.1,0.5-0.1,0.8c0,0-0.1,0-0.1,0c0-0.1-0.1-0.1-0.1-0.2c0.3-1.9,0.1-3.8,0.2-5.6
	c0-1.3,0-2.5,0-3.8c0-0.6-0.1-0.7-0.7-0.7c-0.7,0-1.5,0-2.2,0c-0.3,0-0.5,0.1-0.4,0.5c-0.2-0.1-0.4-0.1-0.6-0.2c0,0-0.1,0-0.1,0
	s-0.1,0-0.1,0c-0.2-0.1-0.4-0.2-0.6-0.4c1.1-0.2,4.3-0.1,4.9,0.1C111.4,72.5,111.4,75.6,111.4,78.8z"/>
<path class="st1" d="M111.4,78.8c0-3.2,0-6.3,0-9.5c-0.6-0.2-3.7-0.3-4.9-0.1c0.2,0.2,0.4,0.3,0.6,0.4c-0.3-0.1-0.8,0.1-0.8-0.3
	c0-0.5,0.5-0.3,0.8-0.3c1.5,0,3,0,4.4,0c0,3.3,0,6.6,0,9.9C111.5,78.8,111.5,78.8,111.4,78.8z"/>
<path class="st1" d="M104.3,78.7c-0.1-0.3-0.2-0.6-0.2-0.9c0-2.5,0-4.9,0-7.4c0-0.2,0-0.4,0-0.6c0-0.5-0.1-0.6-0.6-0.6
	c-0.8,0-1.6,0-2.5,0c-0.6,0-1.1,0-1.7,0c0.2,0,0.4-0.1,0.5-0.1c1.3,0,2.6,0,3.9,0c0.1,0,0.3,0,0.5,0.1
	C104.3,72.3,104.3,75.5,104.3,78.7z"/>
<path class="st1" d="M128.8,80.4c0.3,0.1,0.6,0.2,0.9,0.2c1.4,0,2.8,0,4.2,0c0.3,0,0.6-0.1,0.9-0.2c0.1,0.2,0.1,0.4-0.1,0.5
	c-0.1,0-0.3,0-0.4,0c-1.7,0-3.4,0-5.1,0c-0.2,0-0.3,0-0.5-0.1C128.7,80.8,128.6,80.6,128.8,80.4z"/>
<path class="st1" d="M176.8,80.1c0.1,0.2,0.2,0.3,0.3,0.6c1.2-0.1,2.4-0.2,3.7-0.2c0.4,0,0.7,0,1-0.2c0,0,0,0,0,0
	c0.1,0.1,0.2,0.2,0.2,0.4c-0.1,0.1-0.2,0.1-0.2,0.1c-1.8,0-3.5,0-5.3,0c-0.2,0-0.3-0.2-0.5-0.3C176.3,80.4,176.5,80.2,176.8,80.1z"
	/>
<path class="st1" d="M176,80.5c0.2,0.1,0.3,0.3,0.5,0.3c1.8,0,3.5,0,5.3,0c0,0,0.1,0,0.2-0.1c-0.1-0.1-0.2-0.3-0.2-0.4
	c0.4,0,0.5,0.2,0.4,0.6c-0.2,0-0.3,0.1-0.5,0.1c-1.7,0-3.5,0-5.2,0c-0.1,0-0.3,0-0.4,0C175.8,80.8,175.8,80.6,176,80.5z"/>
<path class="st1" d="M189.5,80.8c-0.2,0.1-0.4,0.1-0.6,0.1c-1.6,0-3.2,0-4.8,0c-0.1,0-0.1,0-0.2,0c-0.2-0.1-0.5-0.1-0.5-0.3
	c-0.1-0.3,0.2-0.4,0.4-0.4c0,0,0,0,0,0c-0.1,0.1-0.1,0.3-0.2,0.5C185.6,80.8,187.6,80.8,189.5,80.8z"/>
<path class="st1" d="M189.5,80.8c-1.9,0-3.9,0-5.8,0c0.1-0.2,0.2-0.4,0.2-0.5c0.4,0.3,0.9,0.3,1.4,0.3c1,0,1.9,0,2.9,0
	c0.4,0,0.9-0.1,1.3-0.2C189.5,80.6,189.5,80.7,189.5,80.8z"/>
<path class="st1" d="M84.7,86.2c2.4,0,4.7,0,7.1,0c-0.2,0-0.4,0.1-0.5,0.1c-2,0-4,0-6,0C85.1,86.3,84.9,86.3,84.7,86.2z"/>
<path class="st1" d="M136.2,80.5c0.4,0.1,0.9,0.2,1.3,0.2c1.5,0,3.1,0,4.6,0c0,0.1,0,0.1,0,0.2c-2,0-4,0-5.9,0
	C136.2,80.7,136.2,80.6,136.2,80.5z"/>
<path class="st1" d="M54.2,63.6c3,0,6,0,8.9,0c0,0,0,0.1,0,0.1C60.2,63.7,57.2,63.7,54.2,63.6C54.2,63.6,54.2,63.6,54.2,63.6z"/>
<path class="st1" d="M54.1,80.6c2.8,0,5.6,0,8.4,0C61.8,80.9,54.8,80.8,54.1,80.6z"/>
<path class="st1" d="M67.3,80.6c1.5,0,3,0,4.5,0C70.3,80.8,68.8,80.8,67.3,80.6z"/>
<path class="st1" d="M89.7,72.2c0,2,0,4.1,0,6.1c0,0-0.1,0-0.1,0c0-2,0-4.1,0-6.1C89.6,72.2,89.6,72.2,89.7,72.2z"/>
<path class="st1" d="M116,81.1c-0.1-0.1-0.3-0.3-0.3-0.4c-0.1-0.2,0-0.4,0-0.6c0-4.7,0-9.3,0-14c0-0.2,0-0.5,0.2-0.7
	c0,0.3,0,0.6,0,0.9c0,4.5,0,9,0,13.4C115.8,80.2,116,80.7,116,81.1C116,81.1,116,81.1,116,81.1z"/>
<path class="st1" d="M114.2,63.5c1.5,0,3.1,0,4.6,0c0.2,0.7,0.3,4.5,0,6.1c0-0.2,0-0.4,0-0.6c0-1.5,0-3.1,0-4.6c0-0.8,0-0.8-0.8-0.8
	c-1.1,0-2.3,0.1-3.4,0.1C114.4,63.8,114.3,63.6,114.2,63.5C114.2,63.5,114.2,63.5,114.2,63.5z"/>
<path class="st1" d="M77,74c1-0.1,2-0.2,3,0C79,74,78,74,77,74z"/>
<path class="st1" d="M130.2,78.9c0-4.4,0-8.7,0-13.1c0,0,0.1,0,0.1,0C130.3,70.1,130.3,74.5,130.2,78.9
	C130.2,78.9,130.2,78.9,130.2,78.9z"/>
<path class="st1" d="M170.1,70.6c0,2.9,0,5.7,0,8.5C169.9,78.7,169.8,72.2,170.1,70.6z"/>
<path class="st1" d="M174.7,80.8c-2,0-4,0-5.9,0c0-0.1,0-0.1,0-0.2c1.4,0,2.8,0,4.1,0c0.5,0,0.9,0,1.4,0
	C174.4,80.6,174.6,80.7,174.7,80.8C174.7,80.8,174.7,80.8,174.7,80.8z"/>
<g>
	<defs>
		<path id="SVGID_1_" d="M33.9,94.9c0.1,0.3,0.3,0.5,0.1,0.8c-0.1,0.2-0.2,0.2-0.4,0.2c-0.6,0-1.1,0.1-1.7,0.1
			c-0.3,0-0.6-0.1-0.9-0.3c-0.1-0.2-0.3-0.2-0.5-0.2c-0.2,0-0.5,0-0.7,0c-0.6,0-0.9-0.4-0.9-0.9c0.1-0.5-0.1-0.8-0.4-1
			c-0.5-0.3-0.7-0.8-0.6-1.4c0.3-1.9-0.5-3.5-1.4-5c-0.4-0.7-0.9-1.4-0.9-2.3c0-0.2-0.1-0.3-0.2-0.5C25,84,25,83.5,25.2,83
			c0.3-0.9,0.5-1.9,0.5-2.8c0-0.2,0.1-0.4,0-0.6c-0.2-1-0.8-1.8-1.4-2.6c-0.7-1-1.5-2-2.3-3c-0.3-0.4-0.6-0.9-0.9-1.4
			c0,0.8,0.3,1.5,0.6,2.3c0.6,1.4,0.8,2.9,1.2,4.4c0.3,1.3,0.3,2.7,0.3,4c0,0.6-0.2,1.2-0.5,1.7c-0.1,0.1-0.2,0.3-0.4,0.2
			c-0.1,0-0.2-0.2-0.2-0.3c0-0.3,0-0.5,0-0.8c0.2-0.9-0.2-1.6-0.5-2.4c0.1,0.5,0.1,1.1,0.3,1.5c0,1.1,0.1,2.2,0,3.2
			c-0.1,1.2-0.4,2.5-1.2,3.5c-0.3,0.4-0.6,0.8-0.9,1.2c-0.2,0.2-0.3,0.3-0.6,0.2c-0.6,0.4-1.2,0.9-1.9,1.1c-0.1,0-0.1,0-0.1-0.1
			c0.5-0.6,1.2-1.1,1.6-1.8c0.2-0.4,0.4-0.8,0.3-1.3c-0.7,0.8-1.5,1.2-2.3,1.6c-0.4,0.2-0.8,0.4-1.2,0.6c-0.7,0.3-1.2,0.9-1,1.8
			c-0.5-0.4-0.7-1.3-0.4-2c0.5-1.2,1.5-2.2,2.2-3.3c0.9-1.5,1.4-3.1,1.2-4.9c0-0.1,0-0.1-0.2-0.2c-0.1,0.7-0.2,1.4-0.4,2.1
			c-0.5,1.6-1.1,3.2-2.5,4.3c-0.3,0.2-0.6,0.4-0.9,0.5c0,0-0.1,0-0.1-0.1c0.7-0.8,1.4-1.6,1.8-2.6c0.4-0.9,0.5-1.9,0.3-2.9
			c-0.1-0.6-0.1-1.1-0.1-1.7c-0.1-1.4-0.4-2.9-0.3-4.3c0.1-1.4,0.2-2.9,1.2-4.1c-0.4-0.1-0.5,0.1-0.7,0.3c-0.1,0-0.2,0-0.1-0.1
			c0.3-0.4,0.7-0.7,1.2-0.9c-0.3-0.3-0.5,0-0.8,0c0,0,0-0.1,0-0.1c0,0,0,0,0,0c-0.1-0.3-0.1-0.4,0.2-0.5c1-0.3,2-0.9,2.5-1.9
			c0.3-0.7,0.8-1.2,1.5-1.5c0.5-0.8,0.4-1.8,0.7-2.7c0.2-0.5,0.5-1,0.9-1.5c0.5-0.6,1-1.4,1.5-2c0.4-0.2,0.6-0.5,0.7-0.9
			c0.9-1.3,1.7-2.6,2.3-4.1c0.3-0.6,0.3-1.3,0.4-1.9c-0.1,1.7-0.7,3.2-2,4.3c-0.6,0.5-1.3,1-2.2,1c-0.1,0-0.2-0.1-0.3-0.3
			c0-0.3,0.3-0.5,0.5-0.6c0.7-0.5,1.2-1.2,1.6-2.1c-1.1,0.8-2.3,1.4-3.5,1.9c-0.2,0.1-0.5,0.3-0.6,0.6c-0.2,0.1-0.2,0.5-0.5,0.4
			c-0.3-0.5-0.2-1.1-0.1-1.6c0.1-0.6,0.4-1.2,0.7-1.7c0.4-0.6,0.8-1.1,1.2-1.7c0-0.1,0.1-0.1,0.2-0.2c-0.1,0.1-0.2,0.2-0.2,0.3
			c-0.1,0.3-0.4,0.5-0.5,0.7c-0.4,0.3-0.6,0.7-1,1c-0.2,0.1-0.5,0.3-0.8,0.3c-0.3-0.2-0.1-0.3,0-0.5c0.2-0.3,0.4-0.5,0.5-0.9
			c0.3-0.6,0.7-1.1,0.9-1.7c0.2-0.6,0.4-1.2,0.2-1.8c0-0.5,0-0.9-0.2-1.4c0,0-0.1,0-0.1,0c-0.2,0-0.3-0.1-0.3-0.3
			c0-0.3,0.2-0.5,0.3-0.8c0.3-0.5,0.3-1,0.2-1.6c-0.3-0.1-0.3-0.3-0.3-0.7c0.1-0.9,0.3-1.7,0.3-2.6c0-0.6,0.2-1.1,0.4-1.6
			c0,0,0,0,0,0c0,0.1,0,0.2-0.1,0.2c-0.2,0.1-0.2,0.5-0.6,0.3c-0.1-0.4,0-0.7,0.1-1.1c0-0.2,0.1-0.4,0.1-0.6c0.3-1,0.8-1.8,1.5-2.5
			c0,0,0,0,0,0c-0.9,0.3-1.4,1.1-1.9,1.8C20.1,43,20,43.3,19.7,43c-0.1-0.3,0.1-0.5,0-0.7c0.4-1.9,1.4-3.6,2.7-5.1
			c0.5-0.3,0.8-0.8,1.2-1.1c0,0,0.1,0,0.1,0c0,0,0,0-0.1,0c-0.2,0.1-0.3,0.2-0.5,0.2c-0.1,0-0.2-0.1-0.2-0.2c0-0.4,0.3-0.6,0.6-0.7
			c0.7-0.5,1.5-1.1,2.5-1.1c0.3,0,0.4-0.2,0.4-0.5c0-0.2,0-0.4,0-0.6c0-0.6,0.4-0.8,0.9-0.5c0.1,0.1,0.2,0.2,0.3,0.3
			c0.1,0.1,0.3,0.4,0.3-0.1c0-0.2,0-0.4,0.2-0.5c0.1,0,0.2-0.1,0.3,0c0.5,0.4,1.1,0.3,1.7,0.1c0.7-0.2,1.5,0.1,2.2,0.3
			c0.2,0.1,0.4,0.1,0.6,0.1c0.2,0,0.4,0,0.5-0.1c0,0,0.1-0.1,0.1-0.1c0.4-0.1,0.7-0.4,1.2-0.4c0.1,0,0.1,0.1,0.1,0.1
			c0,0.1,0,0.2,0,0.2c-0.5,0.7-1.2,1-2,1c-0.2,0-0.5,0-0.5,0.3C32.2,33.9,32.2,34,32,34c-0.1,0-0.1,0-0.2,0c0,0,0,0,0,0
			c0.1,0.1,0.2,0.1,0.4,0.2c1.5,0.8,3,1.8,4.6,2.4c0.6,0.2,1,0.7,1,1.4c0,0.2,0.1,0.5,0.1,0.7c0,1.2-0.9,1.9-2,1.6
			c-0.8-0.2-1.5-0.5-2.2-0.7c-0.2-0.1-0.5-0.1-0.7-0.1c-0.4,0.1-0.8,0.2-1.3,0.2c-0.3,0-0.4,0.1-0.3,0.4c0.6,1.8,1.4,3.4,2.9,4.6
			c0.7,0.6,1.5,0.9,2.3,1.1c1.1,0.4,1.6,1.2,2,2.2c0.2,0.6,0.2,0.6,0.7,0.2c0.6-0.6,1.3-1.2,1.9-1.7c0.7-0.5,2.2-0.4,2.8,0.2
			c0.2,0.2,0.2,0.4,0.3,0.6c0.1,0.6,0.3,1.2,0.5,1.8c0.2,0.5,0.3,1,0.3,1.6c0,0.4,0.2,0.6,0.4,0.9c0.8,1.1,0.6,2.1,0.1,3.2
			c-0.5,1-0.9,2.1-1.3,3.2c-0.1,0.3-0.2,0.5-0.6,0.5c-0.2,0-0.3,0.2-0.4,0.3c-0.3,0.5-0.7,1.1-1,1.6c-0.2,0.3-0.4,0.3-0.5,0
			c-0.4-0.7-0.8-1.4-0.9-2.3c-0.1-0.5,0.4-1,1.1-1.1c0.1,0,0.2,0,0.3,0c0.1,0,0.4,0.1,0.4-0.2c0-0.2-0.2-0.2-0.3-0.2
			c-0.4-0.1-0.5-0.4-0.2-0.6c0.8-0.7,0.5-1.6,0.3-2.4c-0.1-0.3-0.1-0.6-0.3-0.9c-0.1-0.1-0.2-0.1-0.3-0.2c-0.3-0.3-0.6-0.2-0.9,0
			c-0.6,0.4-1.1,1.1-1.6,1.6c-0.2,0.2-0.2,0.5-0.3,0.7c-0.5,2.4-1.4,4.7-2.5,6.8C36,62,36,62.4,35.7,62.7c0,0,0,0-0.1,0
			c-0.5,0.8-0.9,1.6-1.4,2.4c0,0.3-0.3,0.5-0.5,0.8c-0.1,0.3-0.3,0.5-0.4,0.8c-0.3,0.5-0.7,0.8-1,1.3c-0.4,0.5-0.5,1-0.3,1.6
			c0.1,0.3,0.2,0.7,0.4,1c0.7,1.3,0.6,2.7,0.3,4.1c-0.4,1.8-0.9,3.6-1.7,5.3c-0.4,0.8-0.7,1.7-1.3,2.4C29,83.2,29,84.2,29,85.2
			c0.1,1.6,0.7,3.1,1.6,4.5c1,1.6,2.1,3,3.1,4.6C33.9,94.5,34,94.6,33.9,94.9z"/>
	</defs>
	<use xlink:href="#SVGID_1_"  style="overflow:visible;fill:#FFFFFF;"/>
	<clipPath id="SVGID_2_">
		<use xlink:href="#SVGID_1_"  style="overflow:visible;"/>
	</clipPath>
	<path class="st50" d="M19.6,85.6c0,8.5-2.6,15.3-5.9,15.3s-6.8-7.2-5.9-15.3C8,84.1,8.5,74.7,9,70.6c0.2-1.6,0.3-1.3,0.6-1.8
		c1.1-2.1,1.3,1.2,1.8-1.1c0.6-2.8,0.3-2.7,0.9-4c1.1-2.6,5.7,1.6,6,2C21.1,70.5,19.6,77.1,19.6,85.6z"/>
	<path class="st50" d="M52.3,58.7c0,3.1-2.6,5.6-5.9,5.6c-3.3,0-6.8-2.6-5.9-5.6c0.2-0.5,0.7-3.9,1.2-5.4c0.2-0.6,0.3-0.5,0.6-0.7
		c1.1-0.8,1.3,0.4,1.8-0.4c0.6-1,0.3-1,0.9-1.4c1.1-0.9,2.1,1.1,2.3,1.3C50.1,53.8,52.3,55.7,52.3,58.7z"/>
</g>
<path class="st1" d="M34.6,19.6c0.6,0,1,0.5,1.2,1c0.2,0.3,0.3,0.5,0.6,0.4c0.3,0,0.5,0.2,0.6,0.5c0.1,0.4,0.3,0.7,0.6,0.9
	c0.7,0.6,1.3,1.2,2.1,1.6c0.1,0.1,0.2,0.1,0.2,0.3c0,0.4,0.2,0.8,0.4,1.2c0.1,0.5,0.5,0.7,1,0.7c1.2,0,2,0.7,2.6,1.7
	c0.6,0.9,0.1,1.5-0.3,2.3c-0.3,0.6-0.8,1.3-0.6,2.1c0.1,0.5,0.5,0.8,0.8,1.2c0.5,0.7,1.1,1.4,1.6,2.2c0,0,0,0.1,0.1,0.1
	c0.6,0.3,0.8,0.9,0.7,1.5c0,0.1,0.1,0.2,0.2,0.3c0.6,0.5,0.2,1.2,0.4,1.7c-1,0.9,0.3,1.4,0.4,2.1c0,0,0,0.1,0.1,0.1
	c0.7,0,0.5,0.6,0.7,1c0.1,0.2,0.1,0.4,0,0.5c-0.4,0.6-0.4,1.2-0.5,1.9c-0.1,0.6-0.3,0.6-0.7,0.3c-0.5-0.5-0.9-0.2-1.2,0.1
	c-0.5,0.5-0.7,1.3-0.8,2c0,0.2,0.1,0.3,0.2,0.4c0.2,0.2,0.4,0.4,0.5,0.6c0.6,0.8,0.5,0.8-0.1,1.5c-0.3,0.3-0.2,0.8-0.3,1.2
	c-0.4-1.1-0.8-2.1-1-3.2c-0.1-0.4-0.3-0.6-0.7-0.8c-1.1-0.5-1.9-0.1-2.6,0.7c-0.6,0.6-1.3,1.2-2.1,1.8c-0.1-0.4-0.3-0.8-0.4-1.1
	c-0.4-1.2-1.3-1.7-2.4-2.1c-2.2-0.7-3.5-2.4-4.3-4.4c-0.2-0.5-0.4-1.1-0.6-1.6c-0.1-0.3,0-0.3,0.2-0.3c0.5,0,1.1,0,1.6-0.1
	c0.8-0.1,1.6,0.1,2.4,0.5c0.4,0.2,0.8,0.4,1.2,0.3c0.9-0.2,1.2-0.6,1.3-1.3c0.1-1-0.3-1.8-1.1-2.1c-1.6-0.6-3.1-1.5-4.5-2.5
	c0,0,0-0.1,0-0.1c0-0.1,0.1-0.1,0.2-0.1c0.1-0.1,0.2-0.2,0.3-0.2c0,0,0.1,0,0,0c0,0-0.1,0-0.1,0c-0.1-0.1-0.3-0.2-0.2-0.3
	c0.1-0.1,0.2-0.1,0.3-0.1c0.1,0,0.1,0,0.2-0.1c0.8,0,1.5-0.3,2-0.9c0.1-0.1,0.1-0.2,0.2-0.3c-0.1,0.1-0.2,0.1-0.3,0.2
	c-0.4,0.2-0.7,0.5-1.2,0.5l0,0l0,0c-0.2,0.1-0.4,0.1-0.6,0.1c-0.1-0.1-0.3-0.1-0.4,0c-0.5-0.1-1-0.2-1.5-0.3
	c-0.4-0.1-0.8-0.1-1.1,0.1c-0.5,0.3-0.8,0.3-1.2-0.1c-0.1-0.1-0.2-0.3-0.4-0.2c-0.1,0.1-0.1,0.2-0.1,0.3c0,0.5,0,0.5-0.5,0.3
	c-0.1,0-0.1,0-0.2-0.1c-0.2-0.1-0.5-0.4-0.7-0.3c-0.2,0.1-0.1,0.5-0.1,0.8c0,0.1,0,0.1,0,0.2c0.2,0.5,0,0.7-0.5,0.8
	c-1.2,0.2-2.2,0.8-3,1.6c0,0.2,0,0.2,0.2,0.1c0.1-0.1,0.3-0.1,0.4-0.2c0.1,0.2-0.1,0.3-0.2,0.5c-0.3,0.3-0.6,0.5-0.8,0.9
	c-1.3,1.4-2.1,3.1-2.7,4.9c-0.1,0.3-0.3,0.7-0.1,1c0,0,0,0,0,0c0.2-0.1,0.2-0.3,0.4-0.5c0.5-1,1.2-1.7,2.4-1.9c0.1,0,0.2,0,0.1,0.2
	c-0.7,0.8-1.4,1.6-1.7,2.6c-0.3,0.6-0.5,1.3-0.5,1.9c0.2-0.2,0.4-0.4,0.5-0.7c0.1-0.2,0.2-0.3,0.3-0.4c0,0,0.1,0.1,0,0.1
	c-0.1,0.6-0.2,1.2-0.4,1.8c-0.1,0.1,0,0.2-0.1,0.3c-0.1,0.2-0.1,0.4-0.1,0.5c0,0.1,0,0.1,0,0.2c-0.1,0.2-0.1,0.4,0,0.5
	c-0.2,0.8-0.2,1.6-0.4,2.4c0-0.2,0-0.4,0.3-0.4c0.1,0,0.2,0.1,0.2,0.2c0-0.2-0.1-0.2-0.2-0.3c0-0.3,0.1-0.5,0.4-0.5
	c0,0.1,0,0.2,0,0.3c0.1,0.8,0,1.6-0.6,2.2c0.2,0.2,0.2,0.5,0.4,0.7c0.2,0.2,0.1,0.5,0.2,0.7c0,0.1,0.1,0.1,0,0.2
	c-0.1,0.3,0,0.6,0,0.8c0,0.2,0.1,0.1,0,0.1c-0.1-0.3,0-0.6,0-0.9c0,0,0.1-0.1,0.1-0.1c0.3,1.3-0.3,2.4-0.9,3.4
	c0,0.1-0.1,0.1-0.1,0.2c-0.3,0.4-0.6,0.8-0.9,1.2c0,0,0,0.1,0.1,0.1c0.1,0,0.1,0,0.1,0c0.6-0.3,1.1-0.8,1.7-1.3
	c0.3,0,0.2,0.2,0.1,0.3c-0.1,0.3-0.3,0.5-0.4,0.8c-0.2,0.5-0.4,0.9-0.6,1.4c-0.2,0.6-0.3,1.2-0.1,1.9c0,0,0.1,0.1,0.1,0.1
	c0,0,0,0,0,0c0-0.2,0-0.4,0.2-0.6c0.1-0.3,0.4-0.6,0.6-0.7c1.4-0.6,2.6-1.3,3.9-2.2c-0.2,1.4-1.1,2.3-2.2,3.1
	c-0.1,0.1-0.1,0.1,0,0.2c0.1,0.1,0.2,0.1,0.2,0c2.2-0.4,3.2-2,3.7-3.9c0.2-0.6,0.2-1.2,0.3-2C27,56,27,56.5,26.9,57
	c-0.2,1.3-0.9,2.5-1.6,3.6c-0.3,0.5-0.7,1.1-1.1,1.6c-0.2,0.3-0.5,0.6-0.7,1c-1,1.3-2.2,2.5-2.6,4.1c-0.1,0.3-0.2,0.6-0.1,0.8
	c0,0.5-0.2,0.8-0.6,1.1c-0.3-0.1-0.4,0.2-0.6,0.2c0,0,0,0,0-0.1c0.1-1.6-0.3-3.2-0.2-4.7c0-0.7-0.1-1.3-0.1-2c0-0.4-0.4-0.7-0.7-1
	c-0.6-0.6-1.3-1.1-1.7-1.8c-0.3-0.5-0.4-1-0.3-1.6c0-0.3,0-0.5-0.2-0.6c-0.5-0.3-0.6-0.7-0.3-1.3c0.4-0.9,0.2-1.9,0.2-2.8
	c0-0.7-0.1-1.4-0.1-2c0-0.5-0.2-0.7-0.6-0.9c-2.1-1.2-4.2-2.5-6.2-3.9c-0.5-0.3-0.8-0.8-0.8-1.5c0.1-1.2,0.5-2.3,0.3-3.5
	c0-0.2,0.2-0.3,0.4-0.5c0.3-0.2,0.5-0.5,0.5-1c0.1-0.7,0.1-1.5,0.5-2c0.4-0.4,0.5-0.8,0.6-1.2c0.1-0.2,0.3-0.2,0.4-0.1
	c0.3,0.2,0.7,0.3,1,0.5c0.4,0.2,0.5,0,0.5-0.4c0-0.2-0.2-0.3-0.3-0.4c-0.4-0.4-0.3-0.7,0.2-0.8c0.5-0.1,0.7-0.5,0.5-0.9
	c-0.2-0.4,0-0.4,0.3-0.4c0.2,0,0.4,0,0.6,0c0.4,0.1,0.7,0.2,0.7-0.4c0-0.3,0.3-0.2,0.5-0.2c0.3,0,0.5,0,0.4-0.4
	c-0.1-0.4-0.1-0.5,0.4-0.5c0.2,0,0.5-0.2,0.4-0.4c-0.1-0.4,0.1-0.5,0.4-0.5c0.7-0.2,1.3-0.1,1.7,0.5c0.3,0.4,0.6,0.3,1,0.2
	c1.4-0.5,2.9-0.4,4.4-0.3c0.3,0,0.4,0,0.6-0.2c1-1.2,2.1-2.3,3.4-3.1c0.1,0,0.2-0.1,0.2-0.2c-0.3-0.5,0.2-0.7,0.4-1
	c0.3-0.7,0.7-1.3,0.6-2.1c0-0.4,0.1-0.6,0.5-0.7c0.2,0,0.4-0.2,0.5-0.4c0.1-0.2,0.1-0.3-0.1-0.4c-0.8-0.6-1-1.5-1.1-2.4
	c0-0.3,0.1-0.4,0.4-0.5c0.8-0.1,1.6-0.5,2.4-0.7c0.1,0,0.2,0,0.4,0c0.4,0,0.6-0.1,0.8-0.4C33.5,20,34,19.6,34.6,19.6"/>
<path class="st51" d="M26,80.2c-0.1,1-0.3,2-0.6,2.9c-0.2,0.5-0.1,0.9,0.2,1.3c0.1,0.1,0.2,0.2,0.2,0.3c0,1.4,0.9,2.5,1.6,3.7
	c0.7,1.3,1,2.6,0.7,4.1c-0.1,0.4,0,0.6,0.3,0.8c0.5,0.3,0.9,0.7,0.7,1.4c-0.1,0.4,0.1,0.6,0.6,0.6c0.3,0,0.6,0,0.9,0
	c0.3,0,0.6,0,0.7,0.4c0.1,0.2,0.3,0.2,0.5,0.2c0.7,0,1.4-0.1,2.2-0.2c0.4,0.6,0.1,1.2,0.1,1.7c0,0.2-0.1,0.5-0.1,0.7
	c0.1,0.5-0.2,0.7-0.7,0.8c-1.1,0.1-2.1,0.2-3.2,0.4c-1.6,0.2-3.1,0.5-4.7,0.7c-1.7,0.2-3.5,0.5-5.2,0.9c-0.1,0-0.3,0.1-0.3-0.1
	c0-0.2,0.1-0.2,0.3-0.3c0.4-0.1,0.9-0.2,1.3-0.3c0.4-0.1,0.5-0.2,0.4-0.6c-0.3-1.2-0.8-2.2-1.4-3.2c-0.1-0.1-0.1-0.2-0.3-0.3
	c-0.6-0.3-0.8-0.8-1-1.3c0-0.1,0-0.1,0-0.2c0.6-1,0.8-2.1,0.1-3.1c0-0.1,0-0.1,0-0.2c1.3-1.1,2.1-2.6,2.4-4.3c0.2-1.3,0-2.6,0.1-3.8
	c-0.1-0.5-0.2-1.1-0.3-1.8c0.4,0.3,0.5,0.7,0.5,1c0.1,0.5,0.1,1,0.3,1.5c0,0.4,0,0.7,0,1.1c0.4-0.7,0.6-1.4,0.6-2.1
	c0.1-3.1-0.8-6-1.8-8.9c-0.2-0.6-0.4-1.3-0.3-2c0-0.1,0-0.3,0.2-0.3c0.1,0,0.2,0,0.2,0.1c0.2,1.1,1.1,1.9,1.7,2.8
	c0.9,1.3,2,2.5,2.7,3.9c0.1,0.2,0.2,0.6,0.3,0.8C25.9,79.7,25.9,79.9,26,80.2z"/>
<path class="st51" d="M33.9,94.9c-1-1.5-2.1-3-3.1-4.5c-0.9-1.3-1.7-2.6-1.9-4.2c-0.1-0.9-0.1-1.9,0-2.8c0.1-0.6,0.6-1,0.9-1.5
	c1.2-2.1,2.1-4.4,2.6-6.8c0.1-0.6,0.2-1.2,0.3-1.8c0.1-0.8-0.1-1.5-0.4-2.2c-0.2-0.5-0.4-0.9-0.6-1.4c-0.2-0.6-0.1-1.2,0.4-1.7
	c0.4-0.4,0.7-0.8,1-1.3c0.1-0.3,0.3-0.6,0.5-0.8c0.1-0.1,0.2-0.3,0.4-0.2c-0.2,1.5,0,3.1,0,4.6c0,0.7-0.3,1.4-0.5,2.1
	c-0.1,0.4-0.2,0.8,0,1.1c0.4,0.6,0.4,1.2,0.3,1.9c-0.2,1.1-0.3,2.2-0.7,3.3c-0.1,0.3,0,0.5,0.2,0.6c0.5,0.4,0.6,0.8,0.6,1.4
	c-0.1,0.7,0.2,1.5,0.1,2.2c0,0.3,0.2,0.4,0.4,0.6c0.5,0.5,0.5,0.8,0,1.3c-0.1,0.1-0.1,0.3-0.1,0.4c-0.1,1,0.1,1.9,0.1,2.9
	c0,0.3,0,0.7-0.2,0.9c-0.3,0.3-0.1,0.5,0.2,0.7c0.3,0.2,0.3,0.3,0,0.5c-0.5,0.4-0.5,0.8-0.2,1.4c0.2,0.4,0.1,0.8,0,1.1
	c-0.1,0.4-0.1,0.7,0.3,1c0.3,0.2,0.2,0.5,0.1,0.8c-0.1,0.2-0.3,0.4-0.4,0.6l0,0C34.1,95,34,94.9,33.9,94.9z"/>
<path class="st51" d="M36.2,61.7c1.1-2.2,2-4.5,2.5-7c0.1-0.3,0.2-0.7,0.5-0.9c0.5-0.5,0.9-1,1.4-1.4c0.6-0.5,1.2-0.3,1.4,0.5
	c-0.6,0.4-0.7,1-0.5,1.6c0.2,0.5,0.1,0.8-0.5,0.9c-0.3,0.1-0.6,0.3-0.6,0.6c0,0.6-0.4,0.9-0.8,1.2c-0.7,0.5-0.8,0.9-0.5,1.8
	c0.2,0.5,0.3,1,0.1,1.5c-0.2,0.6-0.4,1.2-0.6,1.8c-0.1,0.3-1.2,1.1-1.4,0.9c-0.5-0.4-0.8-0.2-1.3,0c-0.3,0.1-0.3-0.1-0.3-0.4
	c0,0,0,0,0,0C35.8,62.4,36,62,36.2,61.7z"/>
<path class="st52" d="M15.4,74.8c-0.1,0.2-0.3,0.5-0.4,0.7c-0.1,0.2-0.2,0.5-0.3,0.7c-0.1-0.6,0.2-1.1,0.5-1.5
	C15.3,74.7,15.4,74.8,15.4,74.8z"/>
<path class="st0" d="M34.1,65.5c-0.4,0.2-0.5,0.8-0.9,1.1c0.2-0.6,0.6-1,1-1.5C34.5,65.3,34.3,65.4,34.1,65.5z"/>
<path class="st52" d="M15.4,74.8c-0.1-0.1-0.1-0.1-0.2-0.2c0.1-0.1,0.3-0.3,0.4-0.4c0,0,0.1,0.1,0.1,0.1
	C15.7,74.5,15.5,74.7,15.4,74.8z"/>
<path class="st52" d="M13.6,89.7C13.6,89.7,13.6,89.8,13.6,89.7c0,0.2-0.1,0.3-0.2,0.3C13.3,89.8,13.4,89.8,13.6,89.7z"/>
<path class="st52" d="M17.3,92.3c0,0,0.1,0.1,0.1,0.1c-0.1,0.1-0.2,0.2-0.3,0.1C17,92.4,17.2,92.3,17.3,92.3z"/>
<path class="st53" d="M34.2,95.1c0.1,0.2,0.2,0.3,0,0.7C34.2,95.4,34.2,95.2,34.2,95.1C34.2,95.1,34.2,95.1,34.2,95.1z"/>
<path class="st54" d="M44,52.2c0.2,0.1,0.1,0.4,0.1,0.5c0,0.3,0,0.7,0.2,1c0.2,0.3-0.1,0.6-0.3,0.8c-0.2,0.2-0.2-0.1-0.2-0.2
	c0-0.4-0.1-0.8-0.2-1.2c-0.1-0.2,0-0.4-0.1-0.6C43.6,52.4,43.8,52.3,44,52.2z"/>
<path class="st0" d="M20.9,49.4c-0.2,0.1-0.3,0.3-0.3,0.5c0,0,0,0,0,0.1c0,0,0,0,0,0c-0.3,0.2-0.1,0.7-0.5,1
	c0.1-1.1,0.4-2.1,0.5-3.1c-0.1-0.2-0.1-0.4,0-0.5c0,0,0.1-0.1,0.1-0.1c-0.1-0.2-0.1-0.4,0-0.6c0.1-0.1,0.1-0.2,0.2-0.2
	c0,0.9-0.3,1.8-0.4,2.7c0,0.1,0,0.2-0.1,0.3C20.7,49.3,20.9,48.8,20.9,49.4z"/>
<path class="st55" d="M22.4,84c-0.3-0.4-0.2-0.9-0.3-1.4C22,82.3,22,82,21.7,81.6c0,0.6,0.2,1.1,0.2,1.6c-0.3-0.3-0.1-0.7-0.2-1
	c-0.1-0.2-0.1-0.5-0.2-0.8c0-0.1-0.1-0.2,0-0.3c0.2-0.1,0.2,0.1,0.3,0.2c0.4,0.7,0.6,1.5,0.7,2.4C22.4,83.8,22.4,83.9,22.4,84z"/>
<path class="st0" d="M22.7,37.3c0-0.4,0.4-0.5,0.6-0.7c0.2-0.2,0.4-0.4,0.5-0.7c0.1-0.2,0.3-0.3,0.4-0.3
	C23.7,36.1,23.2,36.7,22.7,37.3z"/>
<path class="st1" d="M20.6,58.2c0-0.2,0.1-0.4,0.2-0.6c0.1-0.1,0.2-0.3,0.1-0.5c0.2-0.2,0.4-0.4,0.6-0.7c0.1-0.1,0.2,0,0.2,0
	C21.3,57,21,57.6,20.6,58.2z"/>
<path class="st0" d="M20.3,45.8c0.1-0.7,0.2-1.5,0.6-2.2c-0.1,0.6-0.4,1.1-0.4,1.7C20.6,45.6,20.5,45.7,20.3,45.8z"/>
<path class="st56" d="M44,52.2c0,0.3-0.2,0.4-0.4,0.3c-0.1-0.3-0.1-0.5,0-0.8C43.8,51.8,43.9,52,44,52.2z"/>
<path class="st57" d="M27.6,33c0.3,0,0.5,0,0.4-0.4c0-0.1-0.1-0.2,0.1-0.2c0,0.4,0,0.7,0,1.1C27.8,33.4,27.7,33.2,27.6,33z"/>
<path class="st0" d="M20.6,52.7c-0.1,0.1-0.1,0.2-0.3,0.3c0-0.4,0-0.7,0-1.1c0.1,0.1,0.2,0.1,0.3,0.2c0.1,0.1,0.1,0.2,0.1,0.3
	C20.7,52.6,20.7,52.7,20.6,52.7z"/>
<path class="st0" d="M20.3,45.8c0.2-0.1,0.2-0.2,0.2-0.4c0.1-0.2,0.3-0.3,0.4-0.5c-0.2,0.4-0.4,0.8-0.6,1.3
	C20.1,46,20.2,45.9,20.3,45.8z"/>
<path class="st0" d="M32.7,33.3c-0.1,0-0.1,0.1-0.2,0.1c-0.1,0-0.2-0.1-0.2,0.1c0,0,0.1,0.1,0.2,0.1c0.1,0.1,0.2,0.1,0,0.2
	c-0.1,0-0.2,0-0.3-0.1c0,0-0.1-0.1-0.1-0.1C31.8,32.9,32.5,33.5,32.7,33.3z"/>
<path class="st0" d="M19.6,43.4c0-0.4,0.1-0.8,0.3-1.2c0.1,0.3-0.1,0.5-0.1,0.8c0,0.1,0.1,0.3-0.1,0.4
	C19.7,43.4,19.7,43.4,19.6,43.4z"/>
<path class="st58" d="M43.5,51.8c0,0.3,0,0.5,0,0.8c0,0.2,0,0.4,0,0.6c-0.2-0.4,0-0.9-0.2-1.4C43.3,51.7,43.5,51.7,43.5,51.8z"/>
<path class="st1" d="M34.7,32.3c0.2-0.2,0.5-0.5,0.8-0.8c-0.1,0.3-0.2,0.6-0.4,0.7C34.9,32.2,34.9,32.3,34.7,32.3
	C34.7,32.3,34.7,32.3,34.7,32.3z"/>
<path class="st1" d="M23.6,63.2c0.1-0.4,0.4-0.7,0.7-1C24.2,62.7,23.9,63,23.6,63.2z"/>
<path class="st0" d="M36.2,61.7c0,0.4-0.3,0.7-0.5,1C35.7,62.3,35.9,62,36.2,61.7z"/>
<path class="st0" d="M19.7,43.4c0-0.1,0-0.3,0.1-0.4c0.2,0,0.2-0.2,0.3-0.2c-0.1,0.2-0.2,0.5-0.3,0.7C19.7,43.5,19.7,43.5,19.7,43.4
	z"/>
<path class="st0" d="M20,61.7c0-0.1-0.1-0.2-0.1-0.3c0.1-0.2,0.1-0.4,0.3-0.5c0,0.3-0.1,0.6,0,0.8C20.1,61.9,20.1,61.9,20,61.7z"/>
<path class="st1" d="M22.6,53.7C22.6,53.7,22.6,53.7,22.6,53.7c0.1,0.3,0.1,0.7-0.2,1C22.4,54.3,22.5,54,22.6,53.7z"/>
<path class="st0" d="M21.3,44.6C21.3,44.5,21.2,44.5,21.3,44.6c-0.1-0.3,0-0.4,0.2-0.4c0,0,0.1,0,0.1,0.1
	C21.6,44.5,21.4,44.5,21.3,44.6z"/>
<path class="st0" d="M23.3,36.1c-0.1,0.1-0.3,0.3-0.5,0.3c0-0.3,0.1-0.3,0.3-0.4C23.1,36,23.2,36.1,23.3,36.1z"/>
<path class="st0" d="M22.6,61.3c-0.2,0-0.3,0.1-0.6,0.1c0.1-0.2,0.2-0.3,0.4-0.3C22.4,61.2,22.6,61.3,22.6,61.3z"/>
<path class="st0" d="M31.5,34c-0.1-0.1-0.3-0.1-0.2-0.3c0.1-0.1,0.2-0.2,0.4,0c0,0.1,0,0.1,0,0.2C31.6,34,31.6,34,31.5,34z"/>
<path class="st1" d="M20.6,52.5c0-0.1,0-0.2,0-0.3c0,0,0-0.1,0-0.1c0.3,0,0.2,0.2,0.2,0.4C20.7,52.6,20.7,52.6,20.6,52.5z"/>
<path class="st0" d="M32.1,34.1c0,0.1,0,0.1,0,0.2c-0.2,0-0.4-0.2-0.5-0.3c0,0,0,0,0.1-0.1c0.1-0.1,0.2-0.1,0.3,0
	C32,34,32,34,32.1,34.1z"/>
<path class="st0" d="M32.1,34.1c-0.2-0.1-0.3-0.1-0.5-0.2c0-0.1,0-0.2,0.1-0.2c0.1,0.1,0.2,0.1,0.3,0.2C32,34,32.1,34,32.1,34.1z"/>
<path class="st59" d="M26,80.2c-0.2-0.2-0.2-0.5,0-0.7C26,79.7,26,79.9,26,80.2z"/>
<path class="st0" d="M32.1,34.1C32,34,32,34,32,34c0.1-0.1,0.1-0.2,0.2-0.2c0,0,0,0,0.1,0.1c0.1,0.1,0.2,0.2,0.1,0.4
	C32.2,34.1,32.1,34.1,32.1,34.1C32.1,34.1,32.1,34.1,32.1,34.1z"/>
<path class="st1" d="M32.4,32.9c0.1-0.1,0.3-0.1,0.4,0C32.7,33,32.5,33,32.4,32.9z"/>
<path class="st60" d="M34.7,32.3c0.1,0,0.2-0.1,0.3-0.1c0,0.1-0.1,0.2-0.3,0.3C34.7,32.4,34.7,32.3,34.7,32.3z"/>
<path class="st0" d="M22.6,41c0-0.1-0.1-0.1-0.1-0.2c0.1-0.1,0.2-0.1,0.2,0C22.8,40.9,22.7,40.9,22.6,41z"/>
<path class="st0" d="M32.5,33.9c0.1-0.1,0-0.1,0-0.2c0.3,0,0.6,0.1,0.9,0.1C33.1,34.1,32.8,33.9,32.5,33.9
	C32.5,33.9,32.5,33.9,32.5,33.9C32.5,33.9,32.5,33.9,32.5,33.9z"/>
<path class="st0" d="M20.6,50C20.6,50,20.6,50,20.6,50c0.5,0.1,0.1,0.4,0.2,0.7C20.7,50.5,20.7,50.2,20.6,50z"/>
<path class="st1" d="M20.9,53.6c0,0.4,0,0.7,0,1.1C20.8,54.3,20.7,53.9,20.9,53.6C20.9,53.6,20.9,53.6,20.9,53.6z"/>
<path class="st0" d="M19.7,43.4c0,0,0.1,0.1,0.1,0.1c-0.1,0.1,0,0.3-0.2,0.4c-0.1-0.2-0.1-0.4,0-0.5C19.7,43.4,19.7,43.4,19.7,43.4z
	"/>
<path class="st1" d="M20.6,52.5c0.1,0,0.1,0,0.2,0c0,0.3,0,0.6,0,1c-0.3-0.2,0-0.6-0.3-0.8C20.6,52.7,20.6,52.6,20.6,52.5z"/>
<path class="st61" d="M37.8,38.9c0-0.2,0-0.5,0-0.7c0,0,0,0,0,0C37.8,38.5,37.8,38.7,37.8,38.9C37.8,38.9,37.8,38.9,37.8,38.9z"/>
<path class="st0" d="M32.5,33.9C32.5,33.9,32.5,33.9,32.5,33.9c-0.1,0.4-0.1,0.4-0.2,0.3c0-0.1,0-0.3-0.1-0.4
	C32.3,33.8,32.4,33.8,32.5,33.9z"/>
<path class="st1" d="M18.9,58.4c0,0.1,0.1,0.1,0.2,0.1c-0.1,0.1-0.3,0.3-0.4,0.1C18.6,58.6,18.7,58.4,18.9,58.4z"/>
<path class="st1" d="M19.6,60.4c0,0.2,0,0.3,0,0.5c0,0,0,0,0,0C19.6,60.7,19.6,60.6,19.6,60.4C19.6,60.4,19.6,60.4,19.6,60.4z"/>
<path class="st0" d="M20,61.7c0.1,0,0.2,0.2,0.2,0c0.1,0.1,0.2,0.2,0.1,0.3C20.1,62.1,20,61.9,20,61.7z"/>
<path class="st1" d="M20.7,68c0,0.2,0,0.3,0,0.5c0,0,0,0,0,0C20.6,68.3,20.6,68.2,20.7,68C20.6,68,20.7,68,20.7,68z"/>
<path class="st0" d="M20.7,46.6c0,0.2,0.1,0.4,0,0.6C20.6,47,20.5,46.8,20.7,46.6z"/>
<path class="st1" d="M26,34.1c0.1-0.1,0.2-0.1,0.4,0C26.2,34.2,26.1,34.2,26,34.1z"/>
<path class="st1" d="M33.4,32.8c-0.1,0-0.2,0-0.4,0C33.2,32.6,33.3,32.7,33.4,32.8C33.5,32.8,33.4,32.8,33.4,32.8z"/>
<path class="st0" d="M20.6,47.4c0,0.2,0,0.4,0,0.5C20.5,47.7,20.4,47.5,20.6,47.4z"/>
<path class="st62" d="M29,83.9c0,0.4,0,0.8,0,1.2c0,0,0,0,0,0C29,84.7,29,84.3,29,83.9C29,83.9,29,83.9,29,83.9z"/>
</svg>
